<?xml version="1.0" encoding="UTF-8" standalone="no"?>
<!-- Creator: CorelDRAW X6 -->

<svg
   xmlns:dc="http://purl.org/dc/elements/1.1/"
   xmlns:cc="http://creativecommons.org/ns#"
   xmlns:rdf="http://www.w3.org/1999/02/22-rdf-syntax-ns#"
   xmlns:svg="http://www.w3.org/2000/svg"
   xmlns="http://www.w3.org/2000/svg"
   xmlns:xlink="http://www.w3.org/1999/xlink"
   xmlns:sodipodi="http://sodipodi.sourceforge.net/DTD/sodipodi-0.dtd"
   xmlns:inkscape="http://www.inkscape.org/namespaces/inkscape"
   xml:space="preserve"
   width="3.8298705in"
   height="3.8304157in"
   version="1.1"
   style="clip-rule:evenodd;fill-rule:evenodd;image-rendering:optimizeQuality;shape-rendering:geometricPrecision;text-rendering:geometricPrecision"
   viewBox="0 0 3830.0001 3830.4486"
   id="svg2"
   inkscape:version="0.92.1 r15371"
   sodipodi:docname="adept.svg"
   inkscape:export-filename="D:\X-Files\Projects\artwork\tentacles.png"
   inkscape:export-xdpi="133.69"
   inkscape:export-ydpi="133.69"
   inkscape:label="hood"><metadata
     id="metadata28"><rdf:RDF><cc:Work
         rdf:about=""><dc:format>image/svg+xml</dc:format><dc:type
           rdf:resource="http://purl.org/dc/dcmitype/StillImage" /><dc:title /></cc:Work></rdf:RDF></metadata><sodipodi:namedview
     pagecolor="#ffffff"
     bordercolor="#666666"
     borderopacity="1"
     objecttolerance="10"
     gridtolerance="10"
     guidetolerance="10"
     inkscape:pageopacity="0"
     inkscape:pageshadow="2"
     inkscape:window-width="1280"
     inkscape:window-height="961"
     id="namedview26"
     showgrid="false"
     inkscape:zoom="1.2685928"
     inkscape:cx="186.36861"
     inkscape:cy="175.2115"
     inkscape:window-x="1272"
     inkscape:window-y="46"
     inkscape:window-maximized="1"
     inkscape:current-layer="svg2"
     fit-margin-top="0"
     fit-margin-left="0"
     fit-margin-right="0"
     fit-margin-bottom="0"
     showguides="true"
     inkscape:guide-bbox="true"
     inkscape:snap-bbox="true"
     inkscape:snap-bbox-edge-midpoints="true"><sodipodi:guide
       position="6513.0478,3697.9808"
       orientation="1,0"
       id="guide4502"
       inkscape:locked="false" /><sodipodi:guide
       position="6513.0478,4113.8454"
       orientation="0,1"
       id="guide4504"
       inkscape:locked="false" /><sodipodi:guide
       position="6513.0478,1005.0867"
       orientation="0,1"
       id="guide4506"
       inkscape:locked="false" /><sodipodi:guide
       position="5338.4374,2554.7418"
       orientation="1,0"
       id="guide4508"
       inkscape:locked="false" /><sodipodi:guide
       position="7687.6582,2554.7418"
       orientation="1,0"
       id="guide4510"
       inkscape:locked="false" /><sodipodi:guide
       position="1914.5,3824.7602"
       orientation="0,1"
       id="guide4512"
       inkscape:locked="false" /><sodipodi:guide
       position="175.70125,735.31709"
       orientation="1,0"
       id="guide4614"
       inkscape:locked="false" /><sodipodi:guide
       position="2447.0197,1346.648"
       orientation="1,0"
       id="guide4616"
       inkscape:locked="false" /><sodipodi:guide
       position="3688.9033,735.31709"
       orientation="1,0"
       id="guide4618"
       inkscape:locked="false" /><sodipodi:guide
       position="1249.7873,2719.6454"
       orientation="1,0"
       id="guide4620"
       inkscape:locked="false" /></sodipodi:namedview><defs
     id="defs4"><linearGradient
       inkscape:collect="always"
       id="linearGradient4572"><stop
         style="stop-color:#000000;stop-opacity:1;"
         offset="0"
         id="stop4568" /><stop
         id="stop4535"
         offset="0.56395048"
         style="stop-color:#000000;stop-opacity:0.49803922;" /><stop
         style="stop-color:#000000;stop-opacity:0;"
         offset="1"
         id="stop4570" /></linearGradient><style
       type="text/css"
       id="style6"><![CDATA[
    .str0 {stroke:#2B2A29;stroke-width:98.4252}
    .fil3 {fill:none}
    .fil2 {fill:#2B2A29}
    .fil0 {fill:#FEFEFE}
    .fil1 {fill:#FFED00}
   ]]></style><linearGradient
       inkscape:collect="always"
       xlink:href="#linearGradient4572"
       id="linearGradient4574"
       x1="589.81811"
       y1="1794.455"
       x2="3132.0809"
       y2="1794.455"
       gradientUnits="userSpaceOnUse"
       gradientTransform="matrix(1,0,0,0.7494579,308.51823,-3277.5413)" /></defs><rect
     class="fil0"
     x="-4023.623"
     y="-189.01109"
     width="3830"
     height="3830"
     id="rect4666"
     style="fill:none"
     inkscape:label="background" /><path
     style="display:inline;fill:#501616;fill-rule:evenodd;stroke:#000000;stroke-width:10.41701889px;stroke-linecap:butt;stroke-linejoin:miter;stroke-opacity:1"
     d="M 1243.9051,976.61257 C 973.49982,1192.681 921.65754,1659.6558 921.65754,2031.0577 L 798.4852,3467.2841 H 3147.7064 L 3024.5342,2031.0577 c 0,-359.0945 -51.842,-838.3767 -322.2473,-1054.44513 -395.3948,-315.9425 -1062.9869,-315.9425 -1458.3818,0 z"
     id="path4492"
     inkscape:connector-curvature="0"
     sodipodi:nodetypes="accccaa"
     inkscape:label="hood-back" /><g
     id="Слой_x0020_1"
     transform="translate(-1720.332,-1632.1352)"
     style="display:inline"
     inkscape:label="head"><metadata
       id="CorelCorpID_0Corel-Layer" /><path
       class="fil1 str0"
       d="m 2512,4938 v -7 -1704 c 0,-643 522,-1165 1165,-1165 643,0 1165,522 1165,1165 v 1704 c 0,2 0,5 0,7 0,139 -105,252 -235,252 -130,0 -235,-113 -235,-252 0,-2 0,-4 0,-7 l -6,-911 c -52,25 -100,55 -146,90 l 5,820 c 0,2 0,5 0,7 0,139 -105,252 -235,252 -130,0 -235,-113 -235,-252 0,-2 0,-4 0,-7 l -2,-698 c -27,0 -52,1 -76,1 -26,0 -52,-1 -79,-1 v 698 c 0,2 0,5 0,7 0,139 -105,252 -235,252 -130,0 -235,-113 -235,-252 0,-3 0,-5 0,-7 l 5,-820 c -46,-35 -94,-65 -146,-90 l -6,911 c 0,2 0,5 0,7 0,139 -105,252 -235,252 -130,0 -235,-113 -235,-252 z m 0,0 v -8 c 0,2 0,5 0,8 z"
       id="path16"
       inkscape:connector-curvature="0"
       style="display:inline;fill:#ffed00;stroke:#2b2a29;stroke-width:98.42520142"
       inkscape:label="octopus" /><g
       id="g4533"
       inkscape:label="eyepatch"><path
         style="fill:#2b2a29;stroke:#2b2a29;stroke-width:98.42520142"
         inkscape:connector-curvature="0"
         id="path18"
         d="m 4325,3054 c 0,0 0,0 0,0 0,136 -111,247 -247,247 -136,0 -247,-111 -247,-247 v -124 h 494 z"
         class="fil2 str0"
         inkscape:label="eyepatch-eye" /><line
         inkscape:label="eyepatch-bottom"
         style="fill:none;stroke:#2b2a29;stroke-width:98.42520142"
         id="line22"
         y2="3557"
         x2="4842"
         y1="3221"
         x1="4260"
         class="fil3 str0" /><line
         style="fill:none;stroke:#2b2a29;stroke-width:98.42520142"
         id="line20"
         y2="2407"
         x2="2850"
         y1="2973"
         x1="3831"
         class="fil3 str0"
         inkscape:label="eyepatch-top" /></g></g><g
     id="g4527"
     inkscape:label="left-eye"
     transform="translate(41.668076,375.01271)"><path
       class="fil4"
       d="m 1793,1052.8527 c 0,136.0001 -111,247.0001 -247.0001,247.0001 -136,0 -247,-111 -247,-247.0001 v -118 z"
       id="path27"
       inkscape:connector-curvature="0"
       style="clip-rule:evenodd;fill:#ebecec;fill-rule:evenodd;stroke-width:1.00000012;image-rendering:optimizeQuality;shape-rendering:geometricPrecision;text-rendering:geometricPrecision"
       inkscape:label="sclera" /><path
       class="fil0 str0"
       d="m 1793,1052.8527 c 0,136.0001 -111,247.0001 -247.0001,247.0001 -136,0 -247,-111 -247,-247.0001 v -118 z"
       id="path41"
       inkscape:connector-curvature="0"
       style="clip-rule:evenodd;fill:none;fill-rule:evenodd;stroke:#2b2a29;stroke-width:98.42520905;image-rendering:optimizeQuality;shape-rendering:geometricPrecision;text-rendering:geometricPrecision"
       inkscape:label="eyesocket" /><circle
       class="fil1"
       cx="1546"
       cy="1077.8527"
       r="59.000004"
       id="circle45"
       style="clip-rule:evenodd;fill:#2b2a29;fill-rule:evenodd;stroke-width:1.00000012;image-rendering:optimizeQuality;shape-rendering:geometricPrecision;text-rendering:geometricPrecision"
       inkscape:label="pupil" /></g><path
     style="fill:#ac9393;fill-opacity:1;fill-rule:evenodd;stroke:#000000;stroke-width:52.08509445;stroke-linecap:round;stroke-linejoin:round;stroke-miterlimit:4;stroke-dasharray:none;stroke-dashoffset:0;stroke-opacity:1"
     d="m 991.58361,2283.695 963.17609,-251.1544 998.8398,238.8372 -381.8337,929.0191 H 1336.4655 Z"
     id="rect4624"
     inkscape:connector-curvature="0"
     sodipodi:nodetypes="cccccc"
     inkscape:label="gas-filter" /><g
     id="g4522"
     inkscape:label="tubes"
     transform="translate(41.668076,375.01271)"><path
       sodipodi:nodetypes="czcccccccc"
       inkscape:connector-curvature="0"
       id="path4711"
       d="m 2668.6392,2066.894 c -101.4679,-26.2726 -211.5571,-14.8921 -278.275,51.8258 -66.7178,66.7178 -92.6143,171.0007 -51.8257,278.2749 l 177.3653,177.3653 c 21.1699,28.7512 43.3569,20.5508 54.2718,64.6986 l 3.2959,501.665 h 469.1524 v -501.665 c -8.8737,-169.5976 -11.9411,-172.2616 -100.6528,-282.3437 z"
       style="display:inline;fill:#ac9393;fill-opacity:1;fill-rule:evenodd;stroke:#24221c;stroke-width:104.1701889;stroke-linecap:butt;stroke-linejoin:miter;stroke-miterlimit:4;stroke-dasharray:none;stroke-dashoffset:0;stroke-opacity:1"
       inkscape:label="tube4" /><path
       style="fill:#ac9393;fill-opacity:1;fill-rule:evenodd;stroke:#24221c;stroke-width:104.1701889;stroke-linecap:butt;stroke-linejoin:miter;stroke-miterlimit:4;stroke-dasharray:none;stroke-dashoffset:0;stroke-opacity:1"
       d="m 2444.276,2639.0586 c -53.1711,-90.3262 -139.0632,-160.1238 -233.4165,-160.1238 -94.3533,0 -186.404,55.4275 -233.4164,160.1238 v 501.665 h 466.8329 z"
       id="path4709"
       inkscape:connector-curvature="0"
       sodipodi:nodetypes="czcccc"
       inkscape:label="tube3" /><path
       sodipodi:nodetypes="czcccc"
       inkscape:connector-curvature="0"
       id="rect4700"
       d="m 1385.606,2639.0586 c 53.1711,-90.3262 139.0632,-160.1238 233.4165,-160.1238 94.3533,0 186.404,55.4275 233.4164,160.1238 v 501.665 H 1385.606 Z"
       style="fill:#ac9393;fill-opacity:1;fill-rule:evenodd;stroke:#24221c;stroke-width:104.1701889;stroke-linecap:butt;stroke-linejoin:miter;stroke-miterlimit:4;stroke-dasharray:none;stroke-dashoffset:0;stroke-opacity:1"
       inkscape:label="tube2" /><path
       style="fill:#ac9393;fill-opacity:1;fill-rule:evenodd;stroke:#24221c;stroke-width:104.1701889;stroke-linecap:butt;stroke-linejoin:miter;stroke-miterlimit:4;stroke-dasharray:none;stroke-dashoffset:0;stroke-opacity:1"
       d="m 1140.4088,2066.894 c 101.4679,-26.2726 211.5571,-14.8921 278.275,51.8258 66.7178,66.7178 92.6143,171.0007 51.8257,278.2749 L 1293.1442,2574.36 c -21.1699,28.7512 -43.3569,20.5508 -54.2718,64.6986 l -3.2959,501.665 H 766.42404 v -501.665 c 8.87379,-169.5976 11.94119,-172.2616 100.65285,-282.3437 z"
       id="path4705"
       inkscape:connector-curvature="0"
       sodipodi:nodetypes="czcccccccc"
       inkscape:label="tube1" /></g><rect
     style="display:inline;fill:url(#linearGradient4574);fill-opacity:1;fill-rule:evenodd;stroke:#000000;stroke-width:52.08509445;stroke-linecap:round;stroke-linejoin:round;stroke-miterlimit:4;stroke-dasharray:none;stroke-dashoffset:0;stroke-opacity:1"
     id="rect4548"
     width="2490.1777"
     height="1945.3187"
     x="924.37897"
     y="-2905.332"
     transform="rotate(90)"
     inkscape:label="shadow" /><path
     sodipodi:nodetypes="ssccssssccccss"
     inkscape:connector-curvature="0"
     id="path4722"
     d="M 1957.5377,187.37786 C 1366.1149,185.7944 1065.3887,401.57811 789.85819,1178.0237 612.2606,1678.4936 700.61205,2574.4784 681.88053,3632.7522 L 3210.8994,3618.2363 C 3227.4508,2581.5709 3294.0898,1722.0125 3146.2425,1229.7039 2899.61,408.45581 2589.321,189.06938 1957.5377,187.37786 Z m 7.3368,1014.65124 c 265.7467,0 539.7053,-268.28965 737.4028,-117.1753 270.4052,206.6899 168.3869,633.2265 168.3869,976.7345 l -138.4979,1290.6896 -1440.711,14.1034 -276.8944,-1220.6004 c 0,-355.2811 -41.05128,-854.2372 229.354,-1060.9271 197.6975,-151.11425 455.2128,117.1753 720.9596,117.1753 z"
     style="display:inline;fill:#ff2a2a;fill-rule:evenodd;stroke:#000000;stroke-width:10.41701889px;stroke-linecap:butt;stroke-linejoin:miter;stroke-opacity:1"
     inkscape:label="hood" /><path
     style="fill:#ffdd55;fill-opacity:1;fill-rule:evenodd;stroke:#e7e957;stroke-width:104.1701889;stroke-linecap:butt;stroke-linejoin:miter;stroke-miterlimit:4;stroke-dasharray:none;stroke-opacity:1"
     d="m 1291.4553,3360.5749 c 451.9501,51.8726 919.5784,72.389 1440.711,-14.1034"
     id="path4537"
     inkscape:connector-curvature="0"
     inkscape:label="hood-edging-bottom"
     sodipodi:nodetypes="cc" /><path
     style="display:inline;fill:none;fill-opacity:1;fill-rule:evenodd;stroke:#e7e957;stroke-width:104.1701889;stroke-linecap:round;stroke-linejoin:round;stroke-miterlimit:4;stroke-dasharray:none;stroke-dashoffset:0;stroke-opacity:1"
     d="m 2732.1663,3352.2779 138.4979,-1290.6896 c 0,-343.5079 102.0215,-770.051 -168.3837,-976.7409 -197.6975,-151.11432 -471.6644,117.1913 -737.4111,117.1913 -207.6146,0 -410.2017,-163.7511 -583.1699,-163.3353 -48.4311,0.1165 -94.535,13.0878 -137.7814,46.144 -270.40524,206.6899 -229.3572,705.6525 -229.3572,1060.9336 l 276.8944,1220.6003"
     id="rect4646"
     inkscape:connector-curvature="0"
     sodipodi:nodetypes="ccsssscc"
     inkscape:label="hood-edging" /></svg>