<?xml version="1.0" encoding="UTF-8" standalone="no"?>
<!-- Created with Inkscape (http://www.inkscape.org/) -->

<svg
   xmlns:dc="http://purl.org/dc/elements/1.1/"
   xmlns:cc="http://creativecommons.org/ns#"
   xmlns:rdf="http://www.w3.org/1999/02/22-rdf-syntax-ns#"
   xmlns:svg="http://www.w3.org/2000/svg"
   xmlns="http://www.w3.org/2000/svg"
   xmlns:xlink="http://www.w3.org/1999/xlink"
   xmlns:sodipodi="http://sodipodi.sourceforge.net/DTD/sodipodi-0.dtd"
   xmlns:inkscape="http://www.inkscape.org/namespaces/inkscape"
   width="130.42752mm"
   height="130.56142mm"
   viewBox="0 0 130.42752 130.56141"
   version="1.1"
   id="svg8"
   inkscape:version="0.92.1 r15371"
   sodipodi:docname="darkness.svg">
  <defs
     id="defs2">
    <linearGradient
       id="linearGradient4803"
       inkscape:collect="always">
      <stop
         id="stop4797"
         offset="0"
         style="stop-color:#000000;stop-opacity:1" />
      <stop
         id="stop4801"
         offset="1"
         style="stop-color:#333333;stop-opacity:1" />
    </linearGradient>
    <radialGradient
       inkscape:collect="always"
       xlink:href="#linearGradient4577-7"
       id="radialGradient4579-0"
       cx="4078"
       cy="3115.5"
       fx="4078"
       fy="3115.5"
       r="543.21259"
       gradientTransform="matrix(0.00872679,-0.00101995,7.8900439e-4,0.00675078,64.987188,74.783088)"
       gradientUnits="userSpaceOnUse" />
    <linearGradient
       inkscape:collect="always"
       id="linearGradient4577-7">
      <stop
         style="stop-color:#940000;stop-opacity:1"
         offset="0"
         id="stop4573" />
      <stop
         id="stop4581"
         offset="0.5"
         style="stop-color:#570000;stop-opacity:0.62352943" />
      <stop
         style="stop-color:#ff0000;stop-opacity:0;"
         offset="1"
         id="stop4575" />
    </linearGradient>
    <linearGradient
       inkscape:collect="always"
       xlink:href="#linearGradient4803"
       id="linearGradient4788"
       x1="163.64693"
       y1="175.73888"
       x2="110.72756"
       y2="55.467598"
       gradientUnits="userSpaceOnUse" />
    <clipPath
       clipPathUnits="userSpaceOnUse"
       id="clipPath4997">
      <rect
         style="fill:#000000;fill-opacity:0.36470588;stroke:none;stroke-width:0.26458347"
         id="rect4999"
         width="130.51083"
         height="130.34441"
         x="34.310379"
         y="46.083786"
         transform="matrix(0.835929,-0.5488376,0.54837468,0.83623275,0,0)" />
    </clipPath>
    <clipPath
       clipPathUnits="userSpaceOnUse"
       id="clipPath5001">
      <rect
         style="fill:#000000;fill-opacity:0.36470588;stroke:none;stroke-width:0.26458353"
         id="rect5003"
         width="130.37207"
         height="130.4832"
         x="34.273899"
         y="46.132854"
         transform="matrix(0.94634536,0.32315701,-0.32419731,0.94598948,0,0)" />
    </clipPath>
    <clipPath
       clipPathUnits="userSpaceOnUse"
       id="clipPath5005">
      <rect
         style="fill:#000000;fill-opacity:0.36470588;stroke:none;stroke-width:0.26458347"
         id="rect5007"
         width="130.34244"
         height="130.5128"
         x="34.266106"
         y="46.143322"
         transform="matrix(0.81978512,0.57267125,-0.57306303,0.8195113,0,0)" />
    </clipPath>
    <clipPath
       clipPathUnits="userSpaceOnUse"
       id="clipPath5009">
      <rect
         style="fill:#000000;fill-opacity:0.36470588;stroke:none;stroke-width:0.26458332"
         id="rect5011"
         width="130.42752"
         height="130.42752"
         x="34.288475"
         y="46.113171"
         transform="rotate(100.25832)" />
    </clipPath>
  </defs>
  <sodipodi:namedview
     id="base"
     pagecolor="#ffffff"
     bordercolor="#666666"
     borderopacity="1.0"
     inkscape:pageopacity="0.0"
     inkscape:pageshadow="2"
     inkscape:zoom="0.7"
     inkscape:cx="-20.337864"
     inkscape:cy="350.86595"
     inkscape:document-units="mm"
     inkscape:current-layer="layer1"
     showgrid="false"
     inkscape:object-paths="true"
     inkscape:snap-global="true"
     inkscape:window-width="1536"
     inkscape:window-height="801"
     inkscape:window-x="-8"
     inkscape:window-y="-8"
     inkscape:window-maximized="1"
     showguides="true"
     inkscape:guide-bbox="true"
     fit-margin-top="0"
     fit-margin-left="0"
     fit-margin-right="0"
     fit-margin-bottom="0" />
  <metadata
     id="metadata5">
    <rdf:RDF>
      <cc:Work
         rdf:about="">
        <dc:format>image/svg+xml</dc:format>
        <dc:type
           rdf:resource="http://purl.org/dc/dcmitype/StillImage" />
        <dc:title></dc:title>
      </cc:Work>
    </rdf:RDF>
  </metadata>
  <g
     inkscape:label="Layer 1"
     inkscape:groupmode="layer"
     id="layer1"
     style="display:inline"
     transform="translate(-34.288474,-46.11317)">
    <rect
       style="fill:url(#linearGradient4788);fill-opacity:1;stroke:none;stroke-width:0.26458332"
       id="rect3695"
       width="130.42752"
       height="130.42752"
       x="34.288475"
       y="46.113171"
       sodipodi:insensitive="true" />
    <ellipse
       id="path3691"
       cx="98.443901"
       cy="93.365326"
       rx="10.488839"
       ry="14.268601"
       style="stroke-width:0.28052631" />
    <path
       style="fill:#000000;stroke:#000000;stroke-width:0.26458332px;stroke-linecap:butt;stroke-linejoin:miter;stroke-opacity:1"
       d="m 92.763847,103.76421 -0.278022,7.21609 -13.373859,3.47473 -3.939085,3.9393 -3.109581,22.30871 -1.435053,22.02191 -0.54002,8.28528 -0.597897,5.53041 h 3.073199 l 0.370004,-2.60294 6.546887,-29.27315 0.16588,13.62243 -1.870686,18.25366 33.558156,-0.076 1.45418,-0.003 -0.98813,-16.46551 1.69646,-16.08518 2.03103,32.62975 3.89847,-0.0496 0.65319,-6.1495 1.94592,-28.42602 -1.48651,-20.51156 -0.0782,-2.78351 -4.02537,-4.82688 -12.09908,-2.54197 -0.56667,-7.50371 z"
       id="path3741"
       inkscape:connector-curvature="0"
       sodipodi:nodetypes="ccccccccccccccccccccccccccc" />
    <path
       style="fill:#000000;stroke:#000000;stroke-width:0.18885401"
       d="m 114.98376,132.19612 c -4.1829,4e-4 -2.41255,0.0293 -8.31891,-0.24341 -4.51151,-18.88829 -1.85468,-34.6991 15.95322,-38.722489 9.96647,-2.251749 12.2953,0.80542 16.47554,7.100419 1.84725,2.78177 2.41688,6.91401 4.50381,11.03837 2.08079,4.11223 8.39949,11.41343 12.14384,2.88127 1.53736,-3.50314 -2.4734,-14.714159 -10.42408,-27.470973 14.05343,4.446301 18.28692,26.970363 15.53825,32.417883 -1.63512,3.24061 -6.07189,4.51135 -8.48458,5.30949 -6.31088,2.08768 -9.01664,0.21777 -10.50984,-1.73647 -2.70668,-3.5424 -7.49714,-11.67739 -9.30338,-17.39992 -1.19318,-3.78023 -3.47503,-6.216143 -8.54345,-4.90321 -11.25427,2.91532 -11.88553,12.78842 -9.03042,31.72904 z"
       id="rect3756"
       inkscape:connector-curvature="0"
       sodipodi:nodetypes="ccsssscsssssc" />
    <path
       sodipodi:nodetypes="ccscscscsc"
       inkscape:connector-curvature="0"
       id="path3759"
       d="m 99.928301,148.47473 c -2.54261,-3.32141 -1.48956,-1.898 -4.86279,-6.75401 12.257259,-15.06257 17.558089,-11.98216 33.754889,-3.55763 3.87228,2.01411 8.36401,5.73811 8.80481,8.45504 0.0631,5.94516 0.44648,11.28899 0.59772,16.80386 0.13647,4.97599 2.27975,2.69888 6.88686,8.54498 -7.25312,-2.07098 -9.51473,-4.18888 -10.03282,-7.22572 -0.36457,-2.13692 -0.69195,-4.03764 -1.262,-7.11399 -0.88558,-9.5755 -2.68575,-12.41746 -8.69411,-14.36971 -11.05674,-3.59256 -11.88701,-8.56182 -25.192559,5.21718 z"
       style="fill:#000000;stroke:#000000;stroke-width:0.18885401" />
    <rect
       style="fill:#000000;stroke:#000000;stroke-width:0.26458332"
       id="rect3761"
       width="5.6126599"
       height="76.171814"
       x="24.774944"
       y="95.377762"
       transform="rotate(-23.530073)"
       inkscape:transform-center-x="6.7899725"
       inkscape:transform-center-y="-12.35873" />
    <path
       transform="rotate(-156.74031)"
       style="fill:#000000;stroke:#000000;stroke-width:0.17612673"
       inkscape:transform-center-x="26.453779"
       inkscape:transform-center-y="-31.511651"
       d="m -93.380241,-78.060944 h 5.701116 v 32.156149 l -0.974951,1.073729 h -3.454009 l -1.272156,-1.244359 z"
       id="rect3767"
       inkscape:connector-curvature="0"
       sodipodi:nodetypes="ccccccc" />
    <rect
       style="fill:#000000;stroke:#000000;stroke-width:0.0743682"
       id="rect3769"
       width="2.3225052"
       height="14.543065"
       x="-118.61811"
       y="47.580978"
       transform="rotate(-125.30038)"
       inkscape:transform-center-x="-2.9362821"
       inkscape:transform-center-y="3.1773896" />
    <rect
       transform="rotate(-80.300384)"
       y="110.21408"
       x="-35.193882"
       height="14.543065"
       width="2.3225052"
       id="rect3771"
       style="fill:#000000;stroke:#000000;stroke-width:0.0743682"
       inkscape:transform-center-x="-2.4460355"
       inkscape:transform-center-y="-6.8855639" />
    <rect
       style="fill:#000000;stroke:#000000;stroke-width:0.0743682"
       id="rect3773"
       width="2.3225052"
       height="14.543065"
       x="87.804153"
       y="75.340454"
       transform="rotate(-13.222192)"
       inkscape:transform-center-x="3.0756238"
       inkscape:transform-center-y="-0.26416599" />
    <line
       inkscape:label="eyepatch-top"
       class="fil3 str0"
       x1="100.45002"
       y1="91.441277"
       x2="91.830765"
       y2="86.468292"
       id="line20-9"
       style="clip-rule:evenodd;fill:#000000;fill-rule:evenodd;stroke:#000000;stroke-width:0.86478251;image-rendering:optimizeQuality;shape-rendering:geometricPrecision;text-rendering:geometricPrecision" />
    <path
       style="clip-rule:evenodd;fill:#ff0000;fill-rule:evenodd;stroke:#000000;stroke-width:0.86478251;image-rendering:optimizeQuality;shape-rendering:geometricPrecision;text-rendering:geometricPrecision"
       inkscape:connector-curvature="0"
       id="path3942"
       d="m 104.98312,91.167342 c 0,0 0,0 0,0 0.13872,1.186843 -0.71674,2.268732 -1.90358,2.407445 -1.18685,0.138713 -2.26874,-0.716745 -2.40745,-1.903588 l -0.12647,-1.082122 4.31103,-0.503856 z"
       class="fil2 str0"
       inkscape:label="eyepatch-eye" />
    <circle
       r="0.92667037"
       cy="82.289047"
       cx="103.15005"
       id="path3959"
       style="clip-rule:evenodd;fill:#00ff00;fill-rule:evenodd;stroke:#000000;stroke-width:0.16679217;image-rendering:optimizeQuality;shape-rendering:geometricPrecision;text-rendering:geometricPrecision"
       transform="rotate(5.2300411)" />
    <circle
       style="clip-rule:evenodd;fill:#00ff00;fill-rule:evenodd;stroke:#000000;stroke-width:0.16679217;image-rendering:optimizeQuality;shape-rendering:geometricPrecision;text-rendering:geometricPrecision"
       id="circle3961"
       cx="101.78947"
       cy="84.000999"
       r="0.92667037"
       transform="rotate(5.2300411)" />
    <circle
       r="0.92667037"
       cy="82.056236"
       cx="100.88042"
       id="circle3963"
       style="clip-rule:evenodd;fill:#00ff00;fill-rule:evenodd;stroke:#000000;stroke-width:0.16679217;image-rendering:optimizeQuality;shape-rendering:geometricPrecision;text-rendering:geometricPrecision"
       transform="rotate(5.2300411)" />
    <path
       inkscape:label="eyepatch-glow"
       class="fil2 str0"
       d="m 107.63159,89.885931 c 0,0 0,0 0,0 0.31422,2.688551 -1.55965,5.131867 -4.16981,5.436932 -2.61017,0.305066 -4.996977,-1.640279 -5.311204,-4.328829 l -0.286502,-2.451327 9.481016,-1.108103 z"
       id="path4541-5"
       inkscape:connector-curvature="0"
       style="clip-rule:evenodd;fill:url(#radialGradient4579-0);fill-opacity:1;fill-rule:evenodd;stroke:none;stroke-width:0.86478233;image-rendering:optimizeQuality;shape-rendering:geometricPrecision;text-rendering:geometricPrecision" />
    <circle
       style="clip-rule:evenodd;fill:#00ff00;fill-opacity:0.19607843;fill-rule:evenodd;stroke:none;stroke-width:0.3072263;image-rendering:optimizeQuality;shape-rendering:geometricPrecision;text-rendering:geometricPrecision"
       id="circle3971"
       cx="103.15005"
       cy="82.289047"
       r="1.7068998"
       transform="rotate(5.2300411)" />
    <circle
       r="1.7068998"
       cy="82.005562"
       cx="100.88219"
       id="circle4778"
       style="clip-rule:evenodd;fill:#00ff00;fill-opacity:0.19607843;fill-rule:evenodd;stroke:none;stroke-width:0.3072263;image-rendering:optimizeQuality;shape-rendering:geometricPrecision;text-rendering:geometricPrecision"
       transform="rotate(5.2300411)" />
    <circle
       style="clip-rule:evenodd;fill:#00ff00;fill-opacity:0.19607843;fill-rule:evenodd;stroke:none;stroke-width:0.3072263;image-rendering:optimizeQuality;shape-rendering:geometricPrecision;text-rendering:geometricPrecision"
       id="circle4780"
       cx="101.68539"
       cy="83.989937"
       r="1.7068998"
       transform="rotate(5.2300411)" />
    <g
       id="g4851"
       style="fill:#000000;fill-opacity:0.36619717"
       transform="translate(0.26726995,0.80180862)">
      <path
         inkscape:connector-curvature="0"
         d="m 114.13596,124.47552 c 0.34942,-0.44216 0.60074,-0.98396 1.04827,-1.3265 0.32814,-0.25116 0.8139,-0.18805 1.18025,-0.37922 0.3876,-0.20226 0.6253,-0.68432 1.05075,-0.78497 0.77064,-0.1823 1.58472,-0.0661 2.37559,-0.0256 0.0893,0.005 0.29613,0.11808 0.21639,0.15853 -0.86743,0.44005 -1.80118,0.73487 -2.70177,1.10231 -0.0746,-0.37732 -0.33104,-0.76265 -0.22364,-1.13197 0.11169,-0.38405 0.51193,-0.61859 0.81021,-0.88505 0.55157,-0.49273 1.00195,-1.27024 1.73238,-1.38633 1.04705,-0.16641 2.15896,0.1685 3.12051,0.61506 0.27292,0.12674 0.3946,0.75398 0.12804,0.89359 -1.12668,0.59012 -2.45984,0.64794 -3.68976,0.97191 0.057,-0.26069 0.13878,-0.51716 0.17103,-0.78205 0.11312,-0.92909 -0.34514,-1.54716 0.60364,-2.49068 0.43036,-0.42797 1.24725,-0.17113 1.74579,-0.51732 0.80895,-0.56174 -0.47757,-1.04562 0.45295,-0.59656 -0.22025,0.3608 -0.60991,0.66275 -0.66074,1.0824 -0.0213,0.17571 0.49307,0.16258 0.53089,-0.0103 0.0964,-0.44082 -0.42397,-0.92204 -0.23716,-1.33279 0.29441,-0.64731 1.13311,-0.89923 1.52284,-1.49404 0.22146,-0.338 -0.11479,-0.98733 0.23525,-1.18922 0.28565,-0.16475 0.52446,0.39987 0.78669,0.5998 -5.08741,1.02115 2.2987,4.27118 1.68294,3.22618 -0.69629,-1.18168 -2.63205,-1.34043 -3.19715,-2.59018 -0.44006,-0.97321 1.79746,-1.86408 2.32945,-2.20181 0.19025,-0.12077 0.34778,-0.28665 0.52168,-0.42998 -1.15205,0.29181 0.88582,3.71321 0.41165,2.87078 -2.27967,-4.05021 -1.17623,-1.64651 -0.56748,-4.19712 0.14358,-0.6016 -0.26556,-1.39373 0.15289,-1.84919 0.37038,-0.40313 1.09281,-0.0676 1.63921,-0.10137 -0.0582,0.28739 -0.26076,0.58191 -0.17453,0.86216 0.19751,0.64193 0.37123,1.47882 0.98126,1.75979 0.64133,0.29539 2.3982,0.29003 2.08995,-0.34522 -1.63514,-3.3698 -4.79934,-1.27205 -3.08154,-3.72468 0.20227,-0.28881 0.49194,-0.50525 0.73792,-0.75788 0.36256,0.77913 -0.013,1.84302 0.49832,2.53658 0.24776,0.33604 1.51814,0.50319 1.23737,0.1942 -0.61234,-0.67386 -1.86783,-0.63006 -2.34056,-1.40824 -0.36007,-0.59274 0.16128,-1.37774 0.22885,-2.06798 0.0363,-0.37061 0.0551,-0.74272 0.0827,-1.11408 1.6396,0.1785 -0.0704,2.34735 -0.17012,2.25685 -0.25701,-0.23321 -0.0131,-0.69419 -0.0354,-1.04052 -0.1473,-2.29009 0.11109,-1.51238 -0.48234,-2.81988 0.47774,-0.53722 0.79559,-1.19726 1.25645,-1.74687 0.15895,-0.18955 0.46427,-0.74966 0.53628,-0.51299 0.14374,0.47233 -0.31968,0.97176 -0.24802,1.46025 0.0502,0.34229 0.6028,1.20102 0.58773,0.8554 -0.0264,-0.60518 -0.41657,-1.13764 -0.62486,-1.70647 0.21599,-0.4967 0.90022,-1.37666 0.43005,-2.03111 -0.0577,-0.0803 -0.26547,0.0496 -0.25686,0.14808 0.0295,0.33687 0.22992,0.63612 0.35305,0.95107 0.0508,0.12988 0.21828,0.5132 0.16849,0.38293 -0.13271,-0.34726 -0.27827,-0.68948 -0.41741,-1.03422 -0.29725,-5.75202 -0.7973,-1.734058 0.0585,-2.154883 0.0832,-0.0409 0.14538,-0.21703 0.22289,-0.166214 0.0956,0.06265 0.052,0.226301 0.0425,0.340175 -0.004,0.05181 -0.0368,0.158271 -0.082,0.132673 -0.18319,-0.103619 -0.30388,-0.291269 -0.45583,-0.436904 0.64808,-0.405519 0.1437,-1.398323 0.53248,-1.947762 0.13138,-0.185666 0.47603,-0.220961 0.51763,-0.444569 0.0643,-0.345868 -0.15571,-0.686268 -0.24392,-1.026829 -0.24865,-0.959893 -0.0828,-0.597305 -0.79205,-1.345544 0.31555,0.06869 0.70844,-0.01199 0.94665,0.206071 1.24886,1.143169 0.27273,6.669266 0.61661,-3.463068 7.9e-4,-0.02416 0.0697,-0.02085 0.0724,0.0031 0.0313,0.276643 0.0913,0.565187 0.0223,0.834921 -0.0663,0.259226 -0.27456,0.459314 -0.41184,0.688973 -0.2032,0.133799 -0.45166,0.216331 -0.60959,0.401394 -0.0957,0.112114 0.31452,-0.05415 0.40947,-0.166889 0.87656,-1.040744 2.411,-1.891302 2.46902,-3.250766 0.0332,-0.77802 -1.54208,-0.36086 -2.3178,-0.292473 -0.17017,0.015 -0.0398,0.341117 -0.0891,0.504672 -0.0553,0.183343 -0.14846,0.353041 -0.2227,0.529561 -0.29984,0.17585 -0.23635,0.21155 -0.17753,-0.06872 0.17339,-0.826149 0.14585,-1.720027 0.51377,-2.479776 0.15661,-0.323408 1.2901,-0.612026 0.94142,-0.525177 -1.43015,0.696566 -0.77731,0.506572 -1.90438,0.730793 0.36404,-0.69093 0.97874,1.114904 0.93147,0.724418 -0.17652,-0.556336 -0.35303,-1.112673 -0.52955,-1.669007 0.22298,-0.296201 0.66589,-0.517864 0.66894,-0.888601 0.0109,-1.32357 -1.90795,0.236895 0.14626,-1.053425 -3.15895,0.613524 3.54698,2.099196 3.38307,0.940292 -0.22072,-1.560655 -3.01838,-0.97586 -4.39633,-1.74112 -0.19185,-0.106545 -0.0562,-0.485473 0.0859,-0.652713 0.23081,-0.271669 0.96579,-0.182872 0.92484,-0.536991 -0.0388,-0.335423 -0.66879,-0.09364 -1.00319,-0.140456 8.9491,1.916276 2.11611,0.595267 0.51965,-0.27087 -1.15563,-0.626973 -0.0265,-1.177759 0.089,-1.672119 0.0644,-0.275683 -0.64963,-0.746408 0.14258,-0.136044 0.67111,0.409475 2.50297,0.613347 2.01333,1.228418 -0.93343,1.172567 -2.96871,-0.745596 -3.36358,-1.504643 -0.0809,-0.155503 0.0908,-1.828898 0.0907,-1.871421 0.24299,0.486791 0.35674,1.063577 0.72898,1.460373 0.13619,0.145171 0.27014,-0.513395 0.0868,-0.590823 -0.47349,-0.199919 -1.22695,0.382807 -1.54171,-0.0235 -0.4233,-0.546399 -0.11133,-1.381398 -0.0816,-2.071941 0.009,-0.210582 0.0633,-0.764313 0.19657,-0.600996 0.30211,0.370289 0.2861,0.911963 0.42915,1.367943 5.80434,-2.430896 2.47625,0.181018 1.85491,0.222988 -1.10974,0.07496 -2.26368,0.18564 -3.33487,-0.113847 -0.49964,-0.13969 -1.27629,-1.487268 -1.25028,-2.06307 0.005,-0.121798 0.23212,0.0747 0.34819,0.112056 -0.49417,-3.316777 2.47922,1.093407 1.7793,1.117232 -0.57352,0.01953 -1.1005,-0.325781 -1.65264,-0.482118 -0.75678,-0.214281 -1.65703,-0.141893 -2.27403,-0.629703 -0.34746,-0.274714 -0.0121,-0.908513 -0.18653,-1.315675 -0.12497,-0.291753 -0.4452,-0.452501 -0.6678,-0.678752 0.0944,-0.228518 2.24314,-5.892564 2.81675,-0.01288 0.009,0.09709 -4.22535,0.255252 -4.54212,-0.03329 -0.0652,-2.10562 0.39561,-1.351301 -1.02409,-2.446046 1.17223,0.274113 2.35849,0.493995 3.5167,0.822343 0.0581,0.01646 0.0752,0.157567 0.0192,0.18006 -0.92195,0.370218 -1.83462,0.882933 -2.82606,0.94706 -1.86017,0.120319 -0.76709,-1.332487 -1.47599,-2.057988 -0.35359,-0.361873 -0.96942,-0.290086 -1.45412,-0.435128 2.7329,2.648029 -0.21836,0.55404 3.99721,0.657828 0.3902,0.0096 -0.53363,0.661919 -0.91863,0.726102 -1.01223,0.16874 -2.08095,0.182967 -3.07801,-0.05985 -0.74122,-0.95664 -0.30025,-0.855268 -1.06281,-0.844383 0.66696,0.04024 1.34666,-0.01516 2.00086,0.120724 0.26766,0.05559 0.77788,0.178938 0.69288,0.438761 -0.0867,0.265203 -0.55937,-0.02492 -0.83709,0.0021 -1.41155,0.137144 -2.22928,0.712483 -3.35214,0.04023 -0.0911,-0.05454 -0.11449,-0.17885 -0.17174,-0.268277 0.4481,0.09745 0.89619,0.194895 1.34428,0.292341 0.0581,-0.03944 0.24329,-0.131352 0.17428,-0.118335 -1.4953,0.282059 2.95955,0.972206 -2.34795,0.477859 -1.12214,-0.104518 -1.03051,-1.120444 -1.0503,-0.39846 -0.7382,-0.03646 0.16231,0.01294 1.81165,-0.229264 0.13489,-0.01982 -0.31203,-0.08991 -0.40896,0.006 -0.59782,0.591317 0.0769,1.510369 -1.4398,1.492345 -0.81197,-0.0097 -1.52805,-0.550113 -2.29209,-0.825172 -1.30732,0.04707 -1.28009,0.0218 1.71081,0.206992 0.11922,0.0074 0.30862,-0.125145 0.35798,-0.01638 0.10603,0.233693 0.20437,0.63849 -0.0162,0.769697 -0.40816,0.242829 -0.95364,0.0085 -1.4222,0.08604 -0.73883,0.12228 -1.45845,0.340937 -2.18767,0.511405 5.23554,0.384892 -1.40476,0.337347 2.79147,-0.990012 0.26476,-0.08375 -0.0856,0.549095 -0.14496,0.820361 -0.0306,0.139981 -0.0288,0.304964 -0.12469,0.411404 -0.0438,0.04864 -0.0713,-0.112401 -0.0877,-0.175795 -0.0687,-0.26553 -0.11081,-0.537226 -0.16621,-0.805839 0.90405,0.74272 0.60089,1.472901 0.53143,2.327892 -0.0155,0.191164 0.10517,0.736629 10e-4,0.575373 -1.45987,-2.267235 1.65285,0.58533 -1.28595,-1.771909 -0.68961,0.0685 -1.4419,-0.08984 -2.06881,0.205491 -0.21841,0.102889 0.2524,0.459254 0.47861,0.543624 1.08977,0.40645 2.2719,0.518575 3.3731,0.89295 0.15422,0.05243 0.16306,0.376452 0.3255,0.364469 0.14314,-0.01056 0.11838,-0.262514 0.15892,-0.400206 0.0602,-0.204626 0.0951,-0.415896 0.14259,-0.623845 -0.51108,0.118136 -1.90783,-0.01283 -1.53325,0.354404 0.40173,0.393853 8.07749,-2.827272 3.00268,2.793365 -0.0496,0.282247 -4.04116,-0.419338 -3.99155,-0.701583 v 0 c -0.0705,-1.688361 -0.0774,0.427964 1.50679,1.737998 0.0549,0.04539 5.31938,0.35846 -0.93166,-0.03115 -0.62249,-0.07936 -1.36554,0.13857 -1.86746,-0.238069 -0.55012,-0.412803 -0.68711,-1.200489 -0.91459,-1.849557 -0.12128,-0.346046 -0.48331,-1.077076 -0.11701,-1.093814 1.43728,-0.06566 2.84014,0.499203 4.2201,0.906354 0.12918,0.03811 -0.21486,0.162449 -0.32229,0.243673 -0.8556,0.191284 -1.71119,0.382564 -2.56679,0.573847 -0.62988,-0.177683 -1.42149,-0.07572 -1.88964,-0.533051 -0.1906,-0.186197 -0.53313,-1.851482 -0.36207,-2.429766 0.0623,-0.210611 0.13557,-0.619252 0.34708,-0.56007 1.09374,0.306035 0.53553,0.730954 0.29076,0.967996 -0.13079,-0.326173 -0.2472,-0.658484 -0.39236,-0.978516 -0.12127,-0.267343 -0.39595,-0.488132 -0.40598,-0.781521 -0.007,-0.204171 0.32959,-0.292632 0.36235,-0.494276 0.0378,-0.232648 -0.27569,-0.47526 -0.17056,-0.686218 1.16787,-2.343571 1.18933,-1.888154 3.32255,-2.090658 -0.68669,0.03694 -1.38808,-0.03529 -2.06006,0.110807 -0.13567,0.02949 -0.067,0.457817 -0.17915,0.37601 -0.48196,-0.351467 0.37217,-1.770504 1.05969,-2.012331 1.07364,-0.377634 2.27297,-0.235741 3.40966,-0.178755 0.1895,0.0095 0.2876,0.247547 0.43141,0.371319 -2.75551,0.15843 -0.8664,-0.278376 -2.52176,0.719786 -0.34496,0.208005 0.0664,-0.944523 0.42296,-1.131999 1.04165,-0.547743 2.60272,-0.67759 3.83967,-0.816557 0.20077,0.287822 0.35729,0.612238 0.60231,0.863468 0.1817,0.186306 -0.15504,-0.607626 -0.40886,-0.66511 -0.54638,-0.123745 -1.10935,0.208804 -1.66939,0.194429 -0.1063,-0.0027 0.11677,-0.203583 0.21934,-0.231642 0.35131,-0.09611 0.72188,-0.147185 1.08544,-0.12531 0.64473,0.03879 1.2756,0.203833 1.9134,0.30575 0.33284,-0.08873 0.65406,-0.2682 0.99852,-0.2662 0.0925,5.3e-4 0.1372,0.23353 0.0532,0.272312 -0.6364,0.293952 -1.31496,0.514808 -2.00645,0.629888 -0.10763,0.01791 -0.28464,-0.203112 -0.19391,-0.263699 0.30759,-0.205375 0.69837,-0.25699 1.06334,-0.316828 0.95975,-0.157348 1.93243,-0.221822 2.89864,-0.332732 0.0291,0.13209 0.0248,0.276365 0.0874,0.396277 0.0177,0.03382 0.076,-0.007 0.11398,-0.0105 -0.67721,0.106606 -1.35443,0.213214 -2.03165,0.31982 -0.15232,0.04868 -0.40742,0.437867 -0.25007,0.409374 0.99259,-0.179752 1.88438,-0.903248 2.89301,-0.887986 0.63583,0.0096 1.10031,0.63782 1.65047,0.95673 -0.49908,-0.07446 0.95226,-0.139951 -0.0406,0.377992 -0.56699,0.295788 -1.17493,0.660416 -1.81351,0.626009 -0.25129,-0.01355 0.1713,-0.473252 0.25695,-0.709879 1.23305,0.290819 2.4661,0.581641 3.69916,0.87246 0.0434,-0.06076 0.10091,-0.250933 0.13031,-0.182274 0.0583,0.13616 -0.005,0.296469 -0.0182,0.443977 -0.006,0.06845 0.0266,0.187904 -0.0406,0.20217 -0.62364,0.132295 -2.53788,0.238215 -1.90101,0.209712 4.47369,-0.200216 3.47023,-1.548334 4.51481,0.332136 0.28143,0.214334 0.79029,0.293394 0.84428,0.642999 0.0663,0.429323 -0.30442,0.826405 -0.56348,1.175125 -0.12695,0.170897 -0.34208,0.368607 -0.55029,0.324173 -0.34895,-0.07447 -0.62599,-0.364355 -0.86772,-0.6268 -0.0486,-0.05273 0.10265,-0.132924 0.17403,-0.126334 0.86306,0.0797 1.71485,0.253299 2.57228,0.379947 1.41249,0.925156 0.97442,0.238874 1.13471,1.120175 0.0207,0.113789 0.19589,0.290745 0.0892,0.335314 -0.68206,0.28484 -1.4218,0.425191 -2.15391,0.526958 -0.24636,0.03425 -0.97409,-0.05468 -0.7356,-0.125299 1.13923,-0.337333 2.331,-0.461481 3.4965,-0.692222 0.36191,0.601769 0.728,1.201042 1.08574,1.805303 0.16536,0.279323 1.15602,1.69736 -0.42377,0.36644 -0.37154,-0.313005 -0.42524,-0.808019 -0.0824,-0.42032 0.46194,0.522325 0.89719,1.067665 1.34579,1.601496 -0.0621,0.172496 -0.23131,0.339712 -0.18643,0.51748 0.0271,0.107136 0.1735,-0.25319 0.26772,-0.195474 0.17479,0.107069 0.1678,0.378669 0.29444,0.539838 0.0211,0.0268 0.11663,-0.04541 0.0847,-0.05734 -4.23122,-1.581036 -2.41298,-0.799031 0.87636,1.28378 -0.009,0.227833 -0.0452,0.456208 -0.0271,0.683501 0.0629,0.790778 0.32361,0.416226 -0.13665,1.104701 -0.10068,0.150601 -0.16793,0.419828 -0.34906,0.416542 -0.87016,-0.01577 -9.38419,-1.457926 0.60818,0.192291 -0.28316,0.911082 -0.21508,0.434607 -0.16296,1.509818 0.0105,0.217205 0.25283,0.656238 0.0354,0.651415 -1.39812,-0.03101 -4.39668,0.630417 -4.12919,-0.742217 0.29485,-1.513057 4.96605,-0.837404 4.48135,1.14191 -0.10306,0.354997 -0.24557,0.700852 -0.30918,1.06499 -0.0788,0.450906 0.21155,1.048459 -0.1159,1.368298 -0.46483,0.454022 -1.41607,-1.307343 -0.79977,-1.670516 0.29471,-0.173667 0.3505,0.58823 0.54625,0.86876 0.23627,0.338606 0.49906,0.657921 0.74858,0.986882 -0.51069,0.760643 -1.56084,2.204575 -1.72731,3.059899 -0.045,0.231198 0.55674,-0.129109 0.60871,-0.358842 0.17435,-0.770739 -0.09,-1.5866 0.009,-2.370621 0.0664,-0.526942 1.04571,3.278071 0.76579,1.397211 0.16178,0.953519 0.7213,2.273766 -0.51039,2.991189 -0.84272,0.490863 -2.71233,1.65911 -2.84263,0.692589 -0.19825,-1.470681 1.45548,-2.611879 2.43344,-3.72804 0.42243,-0.482134 0.97047,2.918712 0.963,1.664544 0.0418,0.693997 0.18111,1.388957 0.12553,2.081988 -0.049,0.611187 -0.0748,1.291519 -0.43585,1.787073 -2.05633,2.822122 -3.13348,-6.580296 -0.43817,-2.881935 0.29735,0.408009 0.0925,1.005478 0.13882,1.508218 0.74668,1.873692 1.05262,1.781556 0.33244,3.946871 -0.96683,2.906864 -0.19526,-1.113467 -1.5144,1.054021 -0.13678,0.22475 2.39635,0.841301 0.20599,-0.761942 0.0279,-0.05683 0.0597,-0.229047 0.0838,-0.170497 0.0958,0.232402 0.0531,0.507225 0.15055,0.738957 0.15728,0.374113 0.48778,0.668155 0.60446,1.056852 0.10799,0.359741 0.19034,0.776983 0.0507,1.125663 -0.13665,0.34124 -2.22622,2.41642 -0.85824,-0.69245 -1.96896,-0.976892 0.11469,0.05681 0.1152,0.05748 0.42616,0.56697 0.66212,1.78504 0.69549,2.51866 0.0145,0.31974 0.22951,0.80482 -0.0511,0.95885 -0.25602,0.14055 -0.44834,-0.37442 -0.6725,-0.56162 -0.30204,-0.41916 -0.79451,-0.75304 -0.90612,-1.25749 -0.0797,-0.36024 0.71483,0.40785 0.79769,0.76738 0.125,0.5424 -0.3514,1.10716 -0.23999,1.65251 0.0631,0.30909 0.75087,0.31767 0.7063,0.62999 -0.0906,0.63498 -1.8957,0.2956 -1.13185,1.55617 -0.27548,0.25057 -0.57367,1.02515 -0.82646,0.75171 -0.36794,-0.39801 0.0372,-1.08428 0.0183,-1.62597 -0.003,-0.074 -0.13719,-0.25602 -0.0823,-0.20628 0.25284,0.22933 0.64028,0.41929 0.6896,0.75707 0.1005,0.68835 -0.27055,1.37286 -0.27705,2.06849 -0.003,0.28356 0.16673,0.54209 0.25009,0.81314 -2.24556,0.0708 1.26713,0.18352 -0.28072,-1.27154 -0.73926,-0.69495 -1.94334,-0.59815 -2.87462,-1.00087 -0.75583,-0.32685 1.70398,0.25748 2.34652,0.7725 1.8652,1.49502 1.38405,2.00094 0.99634,3.63707 -0.17901,0.17541 -0.3372,0.37498 -0.53704,0.52624 -1.29877,0.98307 -3.13462,0.8141 -4.21465,-1.44003 -0.34882,-0.72804 1.44413,-1.12757 2.2303,-0.94409 2.01263,0.46971 2.01002,2.69913 2.27829,4.11637 -0.79102,0.68019 -0.72322,0.77733 -1.71957,1.05434 -0.12689,0.0353 -0.29539,0.0923 -0.39505,0.006 -0.58818,-0.50814 -2.35681,-1.6599 -1.58139,-1.71367 1.80821,-0.12538 1.82727,3.0136 1.93731,3.80365 -0.44503,0.32481 -0.8874,0.65331 -1.3351,0.97444 -0.23568,0.16904 -0.42832,0.54054 -0.71491,0.49598 -0.22106,-0.0344 -0.0388,-0.48941 -0.20514,-0.63903 -1.01354,-0.91174 -3.08999,-1.12154 -3.2562,-2.47466 -0.20196,-1.64416 7.4931,2.04383 3.21963,3.78558 -0.0992,0.33206 -0.0577,0.74596 -0.29747,0.99618 -0.94716,0.98838 -1.30628,-0.31929 -1.43476,-0.94921 -0.0171,-0.0837 0.99349,-1.60603 0.524,0.47878 -0.13841,0.61462 -0.58283,1.11713 -0.87425,1.6757 -0.1468,0.52945 -0.6608,2.69381 -1.49877,1.3024 -0.14382,-0.23882 0.006,-0.69767 -0.25491,-0.79656 -0.31572,-0.11978 0.37586,1.32127 -0.5074,0.87681 -1.11372,0.53703 -2.28866,0.96221 -3.34115,1.61108 -0.22248,0.13716 -0.64285,0.66258 -0.38241,0.68452 0.74114,0.0624 1.49686,-0.21034 2.16638,-0.53425 0.30677,-0.14841 0.37428,-0.57657 0.61929,-0.81343 0.32466,-0.31384 -1.05368,1.5888 -0.92794,0.98693 -0.92458,0.64191 -1.89857,1.21793 -2.77374,1.92573 -0.0877,0.0709 -0.13639,0.3536 -0.0247,0.33754 0.43459,-0.0625 0.77861,-0.46016 1.21499,-0.50879 0.12448,-0.0139 0.15374,0.24926 0.0998,0.36228 -0.12488,0.26139 -0.34807,0.47427 -0.5814,0.64596 -0.35097,0.25825 -0.76499,0.41746 -1.14748,0.62619 -0.20699,0.26685 -3.98086,-2.66046 -3.77387,-2.92731 z"
         id="path4840"
         style="fill:#000000;fill-opacity:0.36619717;stroke:none;stroke-width:0.26458332" />
      <path
         inkscape:connector-curvature="0"
         d="m 116.39472,140.68231 c 1.02278,0.29893 2.05754,0.55957 3.06835,0.89677 0.60282,0.2011 1.23449,0.36913 1.76679,0.71624 0.10695,0.0697 -0.035,0.26067 -0.10248,0.36904 -0.86023,1.38152 -3.73307,2.85263 -2.67179,4.08642 1.02334,1.18967 2.48222,-1.93102 3.81945,-2.75221 0.39482,-0.24246 0.88561,-0.27272 1.32841,-0.40908 -3.15052,0.9662 4.32523,-0.48117 3.50633,0.36143 -0.72659,0.74761 -3.64196,0.92668 -2.75669,1.47729 1.05083,0.65358 2.35955,-0.79508 3.5858,-0.96162 0.34376,-0.0467 0.64189,0.27929 0.98325,0.34111 0.35255,0.0639 0.71626,0.021 1.0744,0.0315 -0.17365,-0.10388 -0.32256,-0.27178 -0.52094,-0.31166 -0.12108,-0.0243 0.14052,0.26293 0.26399,0.26001 0.4839,-0.0115 0.94034,-0.24111 1.42079,-0.29986 0.82468,-0.10086 1.65935,-0.2599 2.48613,-0.17795 3.30954,0.328 -0.6754,0.87873 2.10157,0.36248 -0.27674,0.1405 -0.51987,0.42496 -0.83021,0.42149 -0.15487,-0.002 0.03,-0.38672 0.17904,-0.42877 0.39988,-0.11279 0.84204,0.12331 1.24615,0.0268 0.50971,-0.12175 0.90141,-0.63621 1.42468,-0.66475 1.22378,-0.0667 2.32103,0.33187 3.4363,0.69384 -0.92885,0.81097 -1.56482,2.26605 -2.78654,2.43291 -0.70725,0.0966 0.0935,-1.45631 0.39009,-2.10561 0.25333,-0.55463 1.67811,-1.93847 2.46597,-1.90431 0.88992,0.0386 2.2277,-0.0304 2.54966,0.80015 0.26665,0.68786 -1.47472,0.0471 -2.21208,0.0707 0.0978,-0.0709 0.21194,-0.12358 0.29341,-0.21279 0.0772,-0.0846 0.13418,-0.18924 0.1723,-0.29723 0.0124,-0.0352 -0.0602,-0.0871 -0.0293,-0.10797 0.3773,-0.25484 0.82824,-0.39512 1.18776,-0.67449 0.31672,-0.24612 0.43383,-0.76498 0.81705,-0.88341 0.22863,-0.0707 0.36698,0.3072 0.55047,0.4608 0.30633,-1.68592 0.7677,-1.00667 1.97137,-1.59524 0.15289,-0.0748 0.14954,-0.33142 0.29806,-0.41451 0.63985,-0.35798 0.99208,-0.29542 1.64072,-0.29822 -0.35485,0.27961 -0.66556,1.05073 -1.06456,0.83882 -0.41109,-0.21832 -0.17414,-0.97094 0.0148,-1.39631 0.56302,-1.26725 3.98743,-0.85834 4.15173,-0.89414 0.70088,-0.1527 -1.44466,0.092 -2.15178,-0.0285 -0.14789,-0.0252 -0.16126,-0.25304 -0.24189,-0.37956 -0.0509,-0.27599 -0.32624,-0.60749 -0.15262,-0.82799 -0.25675,-1.13425 0.60603,0.35369 0.79462,0.16018 0.0505,-0.0518 0.0505,-0.13574 0.0797,-0.20195 0.24128,-0.54645 0.3465,-1.17931 0.73173,-1.63584 0.30418,-0.36045 0.82237,-0.46206 1.23356,-0.6931 -0.0159,-0.0503 -0.0245,-0.19825 -0.0478,-0.15094 -0.25545,0.5165 -0.26908,1.1777 -0.66639,1.59503 -0.18377,0.19303 -0.13552,-0.53006 -0.0965,-0.79371 0.0763,-0.51513 0.13719,-1.07371 0.43609,-1.50012 0.91081,-1.29932 1.23521,-0.0435 0.92439,-0.92466 -0.0255,-0.0865 -0.0973,-0.34729 -0.0764,-0.25954 0.0762,0.32071 0.41429,0.67733 0.24256,0.9587 -0.12531,0.20533 -0.50261,-0.25426 -0.5264,-0.49363 -0.0193,-0.19457 0.43504,-0.19395 0.43866,-0.38945 0.0109,-0.58783 -1.47603,0.58539 0.099,-0.45868 -0.24514,-0.16288 0.091,-0.60016 -0.1027,-0.77405 -0.19901,-0.17871 -0.62097,-0.076 -0.73717,-0.31694 -0.0778,-0.16134 0.24773,-0.33002 0.42682,-0.32649 0.11954,0.002 0.22868,0.39111 0.1219,0.33733 -0.40994,-0.2065 -0.73273,-0.55306 -1.0991,-0.82958 -0.0891,-0.51666 -0.15139,-1.03866 -0.26718,-1.55 -0.25275,-1.11621 -0.81723,-1.42377 0.12826,-2.77659 0.31021,-0.44384 0.87667,-0.7883 1.41816,-0.79237 0.46115,-0.003 -0.69455,0.6555 -1.13559,0.79025 -0.24054,0.0735 -0.48055,-0.1487 -0.72083,-0.22305 0.12412,-0.0545 0.18689,0.1583 0.29032,0.1331 0.94573,-0.23045 2.24481,-0.04 2.7961,-0.84223 0.50113,-0.72924 0.32266,-2.13413 -0.41569,-2.62172 -1.56781,-1.03534 -2.6205,0.78386 -3.24284,1.61767 0.23086,0.86123 -1.0879,-0.44226 -0.7886,-0.43073 0.96189,0.037 3.57924,1.06056 2.85637,0.4249 -1.18094,-0.34285 -2.36188,-0.6857 -3.54283,-1.02855 -0.0869,0.0105 -0.18422,0.0741 -0.26072,0.0316 -0.3422,-0.19035 -0.62845,-0.46732 -0.94268,-0.70097 -0.39544,-0.21292 -1.30887,-0.56331 -0.63027,-1.38699 0.19551,-0.2373 0.51898,0.37227 0.82334,0.41587 0.70341,0.10077 2.7198,0.40638 2.13176,0.007 -4.02838,-1.21751 -2.72748,-0.40102 -4.35055,-1.51775 -0.26036,-1.81806 -0.18946,0.12751 1.814,0.25306 0.38226,0.0239 0.506,-0.57715 0.78845,-0.83585 0.16449,-0.15067 -0.21397,0.46786 -0.43297,0.51025 -1.11226,0.21527 -2.27194,0.40685 -3.39093,0.22983 -0.45772,-0.0724 -0.68907,-0.61983 -1.0336,-0.92975 -0.0286,-0.13578 -0.2246,-0.40921 -0.0858,-0.40733 1.02238,0.0138 2.0167,0.35115 3.03465,0.44716 0.0532,0.005 0.0635,-0.18699 0.0178,-0.15925 -0.27676,0.16822 -0.45345,0.49661 -0.7573,0.60872 -0.86892,0.3206 -1.78971,0.84941 -2.69754,0.66599 -0.65953,-0.13325 -0.91017,-0.99122 -1.36526,-1.48683 -0.26634,-0.12476 -0.91213,-0.64578 -0.79903,-0.37428 0.76772,1.84296 2.70136,0.64286 4.03049,0.61875 0.49631,-0.009 -0.95669,0.35629 -1.45235,0.32917 -3.55037,-0.19425 -2.9566,0.13189 -4.43145,-1.16685 1.04789,0.67249 0.39937,0.33438 3.13975,-0.19292 0.14638,-0.0282 0.47022,-0.3655 0.36069,-0.26439 -0.39836,0.36772 -0.71024,0.90707 -1.22868,1.0656 -1.92079,0.58736 -2.33524,0.18544 -3.76695,-0.45812 -0.62287,0.4731 -1.75463,1.28084 2.08824,0.65103 0.37755,-0.0619 0.38871,-0.66056 0.5491,-1.00791 0.0373,-0.0809 -0.0945,0.16569 -0.17639,0.20077 -3.15412,1.35103 -2.0296,1.43425 -4.12088,0.80331 -1.90894,-0.30087 1.19231,0.2028 1.38462,0.0749 0.84583,-0.56255 0.89687,-1.86753 1.61938,-2.58158 0.19193,-0.18969 0.22775,0.5165 0.1987,0.78478 -0.30669,2.83262 -0.0201,2.22074 -2.14661,2.98716 -0.18547,0.0841 -0.41229,0.39631 -0.5564,0.25241 -0.18168,-0.18141 -0.0449,-0.52651 0.0388,-0.76923 0.23226,-0.67375 0.6035,-1.2913 0.89562,-1.94133 0.0217,-0.0481 -0.12063,0.0968 -0.0836,0.13446 0.17355,0.1764 0.63752,0.163 0.61906,0.40977 -0.0804,1.07493 -0.58828,2.07404 -0.88242,3.11107 -0.30622,0.14959 -0.62643,0.27342 -0.91866,0.44878 -0.0579,0.0348 -0.0743,0.11291 -0.11143,0.16936 -0.87662,-1.03269 -1.75324,-2.06538 -2.62986,-3.09807 0.25544,-0.20124 3.10148,3.41113 2.84605,3.61237 v 0 c -6.47258,-6.11744 -4.91921,-2.84297 -2.30209,-3.75289 0.27985,-0.0973 0.42474,-0.41319 0.63711,-0.61979 -0.14972,0.9571 -0.36653,1.9061 -0.44915,2.87131 -0.01,0.11569 0.30349,-0.17849 0.22606,-0.26502 -0.28282,-0.31606 -0.98602,-0.26751 -1.07389,-0.68244 -0.47155,-2.22684 -0.19694,-2.8792 1.32868,-3.5915 0.18785,-0.0877 0.40698,-0.0793 0.61047,-0.11891 -0.49589,0.6074 -0.22651,0.17422 -0.0538,1.75354 0.005,0.046 0.0185,-0.0907 0.0281,-0.13605 0.24337,-1.15647 -0.10429,-2.63292 0.73066,-3.46928 1.47527,-1.47777 2.14259,0.0264 2.52855,0.76072 0.8237,-0.74488 -0.66038,0.61074 -2.12388,1.26642 -0.10378,0.0465 -0.1613,-0.23559 -0.0947,-0.32777 0.35297,-0.48843 0.69869,-1.08546 1.26495,-1.29164 3.23947,-1.17949 2.89385,-0.92584 3.25932,0.88019 -0.46213,-0.72416 -0.58623,-0.98432 -2.42821,-0.20102 -0.36512,0.15526 -0.57406,1.26802 -0.18829,1.17529 0.49742,-0.11956 0.31684,-1.1127 0.7851,-1.31874 2.68102,-1.17971 2.77299,-0.84392 4.44706,0.0824 0.0959,0.22081 0.52495,0.62146 0.28772,0.66242 -1.02452,0.17691 -2.07619,-0.23383 -3.11417,-0.17437 -0.11736,0.007 -0.11187,0.3823 0.002,0.35267 1.0062,-0.26205 1.8792,-1.01354 2.91427,-1.11216 0.79466,-0.0757 1.36856,0.99564 2.19794,0.95082 -1.88821,-0.0266 0.1107,-0.10044 -2.96839,0.74375 -0.0654,0.0179 -0.18648,-0.0843 -0.14769,-0.13993 0.24418,-0.35016 0.47193,-0.82889 0.88846,-0.92236 2.8606,-0.64189 2.77739,-0.53419 4.32112,0.29962 -0.61441,1.12212 -0.0719,0.30567 -2.78658,1.17705 -0.13338,0.0428 -0.46524,0.23913 -0.40484,0.11274 0.33496,-0.70102 0.51033,-1.85103 1.28131,-1.94702 1.53087,-0.19059 2.47356,2.56732 4.29509,1.72371 0.0988,0.51129 0.7661,1.30882 0.29649,1.53388 -0.91713,0.43955 -2.37958,0.55315 -3.0433,-0.21744 -0.52906,-0.61423 1.55585,-0.63576 2.36395,-0.57128 0.56064,0.0447 0.97503,0.56249 1.44262,0.87501 0.0211,0.0141 -0.0297,0.0461 -0.0267,0.0713 0.0333,0.28418 0.0896,0.5652 0.13438,0.8478 0.23315,-0.0828 0.48286,-0.36817 0.69945,-0.24855 0.31354,0.17316 0.86602,0.791 0.53637,0.93108 -0.72803,0.30937 -3.14685,-0.0133 -2.3682,-0.15267 0.51493,-0.0922 2.9685,-0.37519 3.80139,0.48028 0.41675,0.42805 0.68543,0.97869 1.02814,1.46804 0.0343,0.80342 0.57359,1.75814 0.10306,2.41026 -0.61947,0.85854 -1.82985,1.67652 -2.85146,1.39879 -0.96186,-0.26147 -1.90154,-1.66842 -1.50603,-2.58336 0.59347,-1.37285 3.52326,-1.47439 4.59754,-0.57128 0.46652,0.39218 0.66268,1.02305 0.99402,1.53457 -0.10622,1.84926 0.0114,2.68036 -1.05231,4.51546 -0.20243,0.34923 0.0514,-0.80569 0.0745,-1.20868 0.024,-0.41748 -0.23891,-0.9675 0.0669,-1.25272 0.53721,-0.50104 0.55348,3.0899 0.37611,2.17147 1.77514,1.09325 0.8358,0.10664 1.31606,2.11365 0.0495,0.20695 0.3955,0.37755 0.29597,0.56563 -0.10977,0.20744 -0.50847,0.0115 -0.68388,0.16742 -0.13396,0.11907 0.58742,0.19934 0.29175,0.45165 0.15296,0.0907 0.46053,0.0942 0.45888,0.27204 -0.002,0.20326 -0.36115,0.21974 -0.46508,0.39443 -0.2231,0.37499 0.0195,0.706 -0.0183,1.08608 -0.14018,1.41357 -0.041,1.1223 -0.64784,1.92398 -0.17651,0.11164 -0.32954,0.39507 -0.52954,0.33491 -0.1744,-0.0525 -0.23844,-0.38924 -0.12516,-0.53186 0.18243,-0.22967 0.52466,-0.38495 0.81368,-0.33495 0.2261,0.0391 -0.51538,0.15483 -0.57666,0.37596 -0.23032,0.83112 0.13758,1.80132 -0.24141,2.57604 -0.18071,0.36941 -0.79041,0.2274 -1.18563,0.3411 0.41558,0.0121 1.57069,0.18233 0.60074,-1.18642 -0.1771,-0.24993 -0.36798,0.49784 -0.48319,0.78167 -0.10162,0.25037 -0.0726,0.53856 -0.15687,0.79529 -0.44901,1.36829 -0.33447,1.06055 -1.28193,1.93893 -0.35629,0.29999 -0.60749,0.83627 -1.06888,0.89997 -0.96561,0.13331 -3.20134,0.5764 -2.9031,-0.35162 0.31761,-0.98828 2.09158,-0.0334 3.10255,-0.269 0.14389,-0.0335 0.0627,-0.37336 -0.0703,-0.43762 -0.17178,-0.083 -0.45982,-0.0297 -0.55615,0.13501 -0.4684,0.80056 -0.6895,1.72215 -1.03424,2.58323 0.0897,-0.0357 0.17288,-0.11363 0.26922,-0.10699 0.0417,0.003 0.0269,0.10696 -0.0109,0.12477 -0.34405,0.16228 -0.74469,0.19579 -1.07368,0.38677 -0.28975,0.1682 -0.47299,0.48012 -0.74836,0.67094 -0.48005,0.33264 -1.4077,0.72434 -1.94597,0.96735 -0.20285,0.23788 -0.35945,0.52473 -0.60854,0.71364 -0.0538,0.0408 -0.0858,-0.11045 -0.0995,-0.17661 -0.0563,-0.27076 0.12712,-0.67734 -0.10824,-0.82255 -0.18392,-0.11347 -0.3785,0.29047 -0.40693,0.5047 -0.0562,0.42329 0.38879,0.9019 0.17148,1.26946 -0.18643,0.31534 -0.71338,0.16694 -1.07007,0.25042 -0.99148,0.16095 -2.08449,0.0171 -2.97443,0.48285 -0.39536,0.20692 0.85112,0.54393 1.27559,0.40626 0.2601,-0.0844 -0.33869,-0.43086 -0.48227,-0.66356 -1.39087,-2.25408 0.86787,-3.28755 -3.16614,0.97792 -0.10832,0.11223 -0.32031,0.18078 -0.32498,0.33669 -0.005,0.15858 0.46178,0.38242 0.30395,0.36626 -0.42411,-0.0434 -0.77965,-0.35871 -1.19439,-0.45739 -0.29803,-0.0709 -0.61492,-0.0902 -0.91793,-0.0452 -0.35748,0.0532 -0.68747,0.2233 -1.0312,0.33496 -0.78724,0.0724 -1.57449,0.14479 -2.36174,0.21719 -0.24467,-0.13503 -0.47039,-0.31233 -0.73401,-0.40508 -0.2024,-0.0712 -0.62536,0.13614 -0.63896,-0.078 -0.0137,-0.21568 0.74046,-2.6e-4 0.62249,-0.18136 -0.14617,-0.22438 -0.53222,-0.06 -0.79846,-0.0888 -2.28168,-0.24674 -0.95404,-0.31094 -3.95558,0.92123 -0.5574,-0.10809 -1.13963,-0.12745 -1.67222,-0.32426 -0.33738,-0.12468 -1.15109,-0.38013 -0.88311,-0.62004 0.75115,-0.67243 3.30033,-1.99164 2.814,-1.10853 -1.23936,2.25054 -3.17785,1.51328 -4.82686,1.19087 -1.05913,-0.20709 -2.11769,-0.41711 -3.17654,-0.62567 -0.87878,-0.66577 -2.82746,-0.91152 -2.63633,-1.99732 0.26201,-1.48842 2.33857,-3.85856 3.49607,-2.88684 1.19988,1.00729 -0.76047,3.1389 -1.72889,4.37037 -0.29026,0.36911 -0.86592,-0.37134 -1.31904,-0.49452 -0.87178,-0.237 -1.80947,-0.24412 -2.6467,-0.58359 -0.87135,-0.3533 -1.60637,-0.9777 -2.40955,-1.46655 -0.30605,-0.22824 2.92178,-4.5564 3.22783,-4.32816 z"
         id="path4842"
         style="fill:#000000;fill-opacity:0.36619717;stroke:none;stroke-width:0.26458332" />
      <path
         inkscape:connector-curvature="0"
         d="m 111.66368,117.61831 c -0.27708,-0.25789 -2.57883,-1.6649 -1.04471,-2.63402 1.20387,-0.7605 2.65159,-1.07258 4.04033,-1.38731 0.27735,-0.0629 1.08067,0.23114 0.8024,0.2898 -4.38019,0.92324 -1.99277,-1.10342 -4.48983,1.90543 -0.18195,-0.40409 -0.52148,-0.76977 -0.54584,-1.21226 -0.0853,-1.54971 0.819,-2.86095 2.0313,-3.74416 0.45967,-0.3349 1.0692,-0.42746 1.63457,-0.48915 0.66574,-0.0726 2.15886,-0.56044 2.00699,0.0918 -0.2935,1.26051 -1.78804,1.87165 -2.68205,2.80747 -0.73803,-0.46365 -2.01669,-1.08883 -1.88439,-2.23865 0.22956,-1.99511 3.31305,-2.67095 4.61953,-2.67077 0.40952,6e-5 1.16945,0.49445 0.91736,0.81719 -0.78028,0.99901 -2.12138,1.38824 -3.18208,2.08236 -0.0982,-0.42461 -0.41022,-0.8536 -0.29465,-1.27382 0.21912,-0.79682 0.72864,-1.49678 1.23597,-2.14912 0.87461,-1.12461 2.31609,-1.64204 3.66694,-0.38319 0.3846,0.35841 -1.1155,0.0328 -1.53914,0.3441 -0.70428,0.51752 -1.11644,1.34497 -1.67466,2.01745 -0.001,-2.41872 -0.45099,-1.6092 1.22325,-3.25106 0.33372,-0.32727 0.64822,-0.68789 1.0449,-0.9351 0.61244,-0.38165 0.65,0.0423 0.57926,0.46551 -0.0155,0.0929 -0.0463,-0.18268 -0.0695,-0.27403 0.39242,-0.29032 0.7019,-0.76 1.17726,-0.87096 0.22257,-0.0519 -0.45163,0.63905 -0.22327,0.64829 0.68887,0.0279 0.40668,-0.93024 0.61553,-1.18674 0.28562,-0.35079 0.60677,-0.75095 1.04398,-0.86705 0.81834,-0.21729 1.69246,-0.0562 2.53869,-0.0843 0.33643,0.31839 1.46854,0.89488 1.00928,0.95515 -0.95147,0.12488 -2.08771,-0.0646 -2.78694,-0.72184 -0.39488,-0.37118 0.0379,-1.13297 0.32405,-1.59321 0.2031,-0.32668 2.10639,-2.415705 3.08854,-1.68154 1.277,0.95457 2.05757,2.436 3.08636,3.654 -1.05139,1.52427 -2.03112,3.84145 -4.7697,-0.10085 -2.02664,-2.91744 1.14988,-4.336927 2.80118,-4.9912 0.54435,-0.21568 1.21761,-0.612454 1.7266,-0.323035 1.2992,0.738738 2.14011,2.086755 3.21017,3.130135 -0.4214,1.1576 -1.32846,5.63796 -4.53073,2.39451 -1.82254,-1.84597 -0.31407,-4.831259 1.33103,-5.838813 0.62518,-0.3829 1.38485,-0.762561 2.10638,-0.632736 1.24449,0.22392 2.28413,1.085472 3.4262,1.628206 -0.18492,0.776543 -0.15064,1.641233 -0.55477,2.329633 -1.49679,2.54967 -3.72488,0.34494 -4.25944,-2.212345 -0.17787,-0.850914 1.10517,-1.342197 1.66526,-2.007018 0.44968,-0.533768 0.75751,-1.243143 1.36395,-1.588627 0.54214,-0.308857 1.2371,-0.163722 1.85565,-0.245581 0.84015,0.17205 1.68029,0.344098 2.52044,0.516149 -0.15396,-0.02064 -0.30814,-0.08416 -0.46187,-0.0619 -0.5855,0.0848 -1.1421,0.376219 -1.73369,0.379897 -0.13356,7.94e-4 -0.26012,-0.281848 -0.15818,-0.368131 0.31459,-0.266261 0.73369,-0.438703 1.14486,-0.466963 0.72286,-0.04969 1.44029,0.159845 2.16044,0.239771 2.16189,-0.0092 -0.78075,1.048504 -1.71209,0.899017 -0.39767,-0.06383 0.43895,-0.696791 0.76125,-0.938313 0.94976,-0.711703 1.81778,-0.10822 2.84692,0.156543 0.16425,0.321892 0.60094,0.193667 0.83404,0.394229 0.36397,0.313177 0.55305,0.939149 1.02811,1.008965 0.28965,0.04257 0.57982,-0.629629 0.34683,-0.806897 -1.73411,-1.319387 -1.67854,-0.573728 -1.74286,0.136586 1.05079,0.346625 2.25583,-0.528625 3.34814,-0.281223 0.15256,0.03455 0.45364,0.327221 0.30074,0.360248 -0.48588,0.104961 -1.001,-0.205255 -1.48763,-0.103856 -0.24239,0.05051 -0.35238,0.347919 -0.52684,0.523607 -0.0211,0.02125 0.0444,-0.04011 0.0667,-0.06017 2.26737,-0.827637 1.90358,-1.274278 3.47234,-0.673097 0.15462,0.05925 0.34366,0.104161 0.4329,0.243642 0.0617,0.09642 -0.21816,-0.09454 -0.33234,-0.08647 -0.42453,0.03004 -0.8364,0.172326 -1.26114,0.199218 -0.17436,0.01103 0.33456,-0.100761 0.50184,-0.151143 1.22939,-0.589418 0.45007,-0.352698 2.54895,-0.189484 0.10457,0.0081 0.23828,-0.03772 0.31255,0.03634 0.0727,0.07252 0.13356,0.296976 0.0313,0.30652 -0.36199,0.03377 -1.43386,-0.202944 -1.07036,-0.209574 0.80538,-0.01469 1.60629,0.123433 2.40943,0.18515 0.20146,0.08936 0.38713,0.305189 0.60437,0.268089 0.12788,-0.02183 0.19373,-0.347731 0.0689,-0.383066 -0.30239,-0.0856 -0.66238,-0.02191 -0.93259,0.138586 -0.16256,0.09655 -0.1573,0.347114 -0.19658,0.532058 -0.19602,0.922899 -1.44191,2.917633 -0.50786,2.784523 1.42537,-0.203118 1.98047,-2.090325 2.9707,-3.13549 1.54347,-0.633965 -1.65187,-0.419941 -1.56484,0.193167 0.0848,0.597747 -0.21663,1.566894 0.34929,1.777217 1.01767,0.378214 2.15068,-0.298979 3.22602,-0.448471 -0.1981,-0.890651 -0.3962,-1.781302 -0.59431,-2.671953 -0.30348,-0.05149 -0.77483,0.121861 -0.91043,-0.154475 -0.11491,-0.234156 0.72834,-0.322828 0.57329,-0.532564 -0.5914,-0.799941 -1.65443,2.277893 -0.84133,1.676493 0.95471,-0.706139 1.42269,-1.901669 2.13404,-2.852505 -0.24493,-0.458179 0.22748,0.374245 -0.0805,0.573149 -0.16523,0.106693 -0.36549,-0.266277 -0.36583,-0.462963 -5.3e-4,-0.23318 0.29391,-0.374986 0.36398,-0.597389 0.0936,-0.29694 -0.0467,-0.66144 0.11621,-0.926733 0.25957,-0.422635 0.72063,-0.681672 1.08094,-1.022511 0.32784,0.07183 0.6479,0.218009 0.9835,0.215477 0.1502,-0.0011 -0.24707,-0.254313 -0.39328,-0.21993 -0.61968,0.145719 -0.0209,0.509339 -0.0462,0.245142 -0.11395,-1.187157 -0.36822,0.169023 0.21656,-1.580642 -1.86931,-1.076246 1.35107,-0.674952 0.95361,-0.755409 -0.2392,-0.04842 -0.48873,-0.02519 -0.729,-0.06798 -0.0968,-0.01725 0.24986,0.07809 0.29489,-0.0093 0.12502,-0.242689 0.0799,-0.540163 0.1267,-0.809117 0.0752,-0.432517 0.15949,-0.863407 0.23923,-1.295112 0.96562,-0.490148 1.12813,-0.230394 1.326,-0.882565 0.0142,-0.04693 -0.0267,-0.137732 0.0217,-0.145521 0.0934,-0.01503 0.21919,0.181576 0.26575,0.09927 0.1133,-0.200247 0.0232,-0.461086 0.0668,-0.686993 0.06,-0.31056 0.16192,-0.611513 0.24288,-0.917271 0.81738,-1.416171 0.76086,1.217867 0.37065,1.603447 -0.33269,0.328744 -0.75288,-0.655418 -0.85631,-1.111555 -0.15759,-0.695057 -0.24192,-1.520891 0.12024,-2.134716 1.83089,-0.917387 1.42628,-0.238485 1.84445,-1.489811 0.11711,1.094674 0.27984,2.185427 0.35133,3.284022 0.003,0.04902 -0.0886,0.08198 -0.13359,0.06222 -0.60218,-0.264551 -1.47283,-0.301619 -1.75918,-0.893749 -0.32067,-0.663138 0.12905,-1.469993 0.26615,-2.193726 0.35008,-1.848012 0.19942,-1.919994 0.6324,-1.185455 -0.16908,0.139768 -0.29406,0.471 -0.50726,0.419309 -1.55109,-0.376087 -1.1865,-1.092597 -0.87199,-2.21841 0.15164,-0.54283 0.20373,-1.165558 0.57409,-1.5904 0.27832,-0.319257 2.67493,-0.692007 0.10594,-0.227578 -0.26286,0.862599 -0.75966,-0.735016 -0.30406,-0.76916 0.18857,-0.01413 0.33992,0.22312 0.3998,0.402489 0.10105,0.302684 0.0805,1.273781 0.0537,0.95581 -0.10135,-1.199287 -0.18475,-2.400022 -0.27712,-3.600034 -0.0552,0.364077 0.0743,0.812747 -0.16547,1.092231 -0.20461,0.238517 -0.63426,0.297532 -0.92552,0.179533 -0.15886,-0.06436 0.17721,-0.311472 0.17676,-0.482875 -0.001,-0.524735 -0.23326,-1.0414 -0.18213,-1.563642 0.0311,-0.317752 0.36962,-1.176385 0.41953,-0.861042 0.13272,0.838415 -0.1023,1.694622 -0.15346,2.541932 -5.3e-4,-0.0011 -0.68464,-1.564468 -0.90891,-1.892639 -0.0442,-0.0646 -0.15037,-0.07472 -0.18449,-0.145134 -0.10177,-0.210048 -0.4322,-0.598102 -0.20955,-0.668124 4.17085,-1.311708 4.62717,0.872038 3.97537,-1.208958 -1.20897,0.426546 -2.35619,1.109893 -3.6269,1.279637 -0.43281,0.05781 -0.79904,-0.371751 -1.14147,-0.642679 -0.22022,-0.174233 -0.30546,-0.47947 -0.51423,-0.667274 -0.0512,-0.04609 -0.0156,0.273252 0.002,0.206709 0.32256,-1.199375 0.19998,-2.595732 0.91363,-3.612227 0.33637,-0.47912 1.1648,-0.118533 1.7472,-0.1778 -0.7496,0.902909 -1.49921,1.805816 -2.24881,2.708722 -0.11053,-0.215156 2.93226,-1.778402 3.0428,-1.563243 v 0 c -0.59181,0.880005 -1.18361,1.760009 -1.77541,2.640013 2.87604,0.811324 0.10989,0.493376 1.86518,-3.244461 0.1541,-0.328142 0.5626,0.474869 0.75701,0.780849 0.20907,0.329046 0.27194,0.731266 0.43015,1.087567 0.93612,2.108234 1.13613,0.438631 -3.07463,2.868046 -1.66767,-1.887371 -0.65538,-0.28398 3.24576,-1.691904 0.28829,-0.104042 0.32469,-0.87534 0.58327,-0.710793 0.29228,0.185989 -0.12889,0.695357 -0.0708,1.036892 0.0397,0.233608 0.2028,0.433562 0.35215,0.617542 0.0585,0.07211 -0.0465,-0.179816 -0.0698,-0.269724 0.1771,0.84437 0.14772,1.760318 0.53128,2.533116 0.10882,0.219263 0.41338,-0.350571 0.43077,-0.594739 0.0274,-0.38445 -0.10973,-0.784331 -0.30907,-1.114202 -0.13881,-0.229693 0.0261,0.544083 0.11712,0.796559 0.88382,2.452164 0.80957,0.05977 0.34071,3.433467 -0.14681,-1.05949 -0.41347,-2.109198 -0.44045,-3.178472 -0.007,-0.275775 0.21376,0.514768 0.37883,0.735799 0.22363,0.29945 0.60501,0.47721 0.77545,0.809823 0.0876,0.170916 -0.0929,0.381884 -0.0672,0.572209 0.58854,4.36267 0.0349,-3.391331 0.3819,2.706733 -0.32624,0.450627 -0.65822,0.897151 -0.97871,1.351885 -0.10057,0.142701 0.23,-0.265236 0.31879,-0.415552 0.21296,-0.360494 0.28939,-0.814427 0.58371,-1.112226 0.1262,-0.127696 0.003,0.359889 -0.0165,0.538356 -0.21542,1.963298 -0.37602,0.517461 0.45662,3.05385 -0.13692,0.376449 -0.0329,0.996378 -0.41077,1.129347 -0.32692,0.115038 -0.68035,-0.381558 -0.7488,-0.721296 -0.0743,-0.368885 0.54088,-0.714669 0.39,-1.059395 -0.14528,-0.331927 -0.81235,-0.675539 -1.01914,-0.378015 -0.2003,0.288184 0.73678,0.288033 0.85105,0.619866 0.36206,1.051478 0.33219,2.199187 0.49829,3.29878 -0.0183,0.171849 0.11269,0.473609 -0.055,0.515546 -0.84079,0.210304 -0.65156,-0.907839 -0.80075,-1.176579 -0.0573,-0.103171 -0.35859,-0.194587 -0.34545,-0.07732 0.0895,0.799002 0.89012,3.744256 0.56762,2.344261 -1.0204,0.08256 0.39462,-0.131369 0.33135,0.821931 -0.036,0.541861 -0.58802,0.914341 -0.84707,1.391628 -0.13945,0.256937 -0.43673,1.370566 -0.92242,1.379175 -0.23892,0.0042 -0.25386,-0.404921 -0.38079,-0.60738 1.32202,-0.197606 0.37873,-0.230947 0.32745,0.451665 -0.0445,0.592963 0.36275,1.212789 0.17107,1.775682 -0.30539,0.896795 -1.31023,1.177431 -2.09916,1.104551 -0.12545,-0.01159 0.2301,-0.102658 0.34515,-0.153987 0.21463,-0.314198 0.47444,-0.601901 0.6439,-0.942594 0.0621,-0.124828 -0.28128,0.141631 -0.31303,0.277381 -0.10424,0.445725 0.0787,0.939297 -0.0726,1.371338 -0.0917,0.261975 -1.75509,2.590689 -1.91429,2.705537 -0.15506,0.111857 -0.0602,-0.377614 -0.0903,-0.56642 0.21075,-0.171162 0.43622,-0.325636 0.63224,-0.513485 0.0249,-0.02389 0.0438,-0.113679 0.011,-0.102955 -0.22342,0.07301 -0.51127,0.106916 -0.63489,0.306832 -0.21081,0.340937 -0.0901,0.81593 -0.27822,1.169911 -0.76477,1.439328 -0.92584,1.247402 -2.25424,1.697908 0.31499,-0.811578 0.11897,-2.159752 0.94496,-2.434733 0.64226,-0.213815 0.45427,1.324631 0.37151,1.996464 -0.0824,0.668808 -0.36285,1.365054 -0.84375,1.8371 -0.28379,0.278564 -0.79023,0.09155 -1.18319,0.152508 -3.94651,0.612184 -2.3359,1.350724 -4.43283,-2.483069 1.18498,-0.345665 2.37672,-1.405083 3.55492,-1.036992 0.73271,0.228909 0.34858,1.503074 0.39036,2.269566 0.0172,0.316693 0.007,0.701255 -0.21616,0.926613 -0.38034,0.384059 -0.94809,0.521494 -1.43993,0.74567 -2.54828,1.161486 -1.97941,1.696286 -2.68245,0.16237 0.70979,-0.907095 0.97759,-2.719994 2.12938,-2.721287 0.70901,-7.94e-4 0.43715,3.367783 -0.52554,3.726693 -0.73156,0.27274 -1.5673,0.23746 -2.33916,0.12 -2.8082,-0.42733 -0.52487,-0.82849 -1.58208,-0.61335 0.55306,-0.0909 1.67081,0.28755 1.65919,-0.27282 -0.0116,-0.557215 -1.11229,0.0942 -1.66085,0.19274 -0.2872,0.0516 -0.56235,0.35395 -0.83716,0.25586 -0.22488,-0.0803 -0.51338,-0.58381 -0.28601,-0.65673 1.40239,-0.449812 1.08727,0.89728 1.22073,0.18875 -0.7714,0.23364 -0.65134,0.21133 -2.14282,0.27199 -0.21764,0.009 -0.43204,-0.14912 -0.64513,-0.10399 -0.21621,0.0458 -0.33692,0.37063 -0.55761,0.35873 -0.70504,-0.038 3.0542,-5.104202 1.58325,-1.407163 -0.46892,1.946443 -1.47288,1.398343 -3.14013,1.102103 -0.14958,-0.0266 -0.2637,-0.15249 -0.40354,-0.21186 -0.12178,-0.0517 -0.50997,-0.10705 -0.37831,-0.12004 0.50892,-0.0502 1.02278,0.004 1.53417,0.006 -1.40263,0.3792 -1.69239,0.61901 -3.46346,-0.118878 -0.32225,-0.13426 -0.95242,-0.94987 -0.61966,-0.844306 0.40273,0.127764 0.74308,0.519776 0.8685,0.923254 0.0881,0.28347 -1.19381,0.21635 -0.84244,-0.288781 2.49237,-0.12918 -0.0472,0.278771 0.60434,-0.66983 0.13463,-0.196022 0.92689,-0.105412 0.71342,-5.29e-4 -2.26523,1.11212 -1.95903,0.99233 -3.53509,0.752237 0.32481,-0.05956 0.66046,-0.07637 0.97443,-0.178684 0.20941,-0.06824 0.51782,-0.113323 0.57466,-0.326109 0.0414,-0.154853 -0.3277,-0.07808 -0.48002,-0.02819 -0.72211,0.236497 -1.34809,0.808006 -2.10499,0.874816 -0.33197,0.0293 -1.94511,-1.902257 0.59382,-0.804308 0.3647,0.818818 0.60365,0.787448 -0.73473,1.102798 -1.6324,0.38464 -4.21174,-3.073054 -5.32485,-0.76961 -0.21547,0.44588 0.056,0.98885 0.084,1.48327 0.98183,0.19536 1.95947,0.41318 2.94551,0.58609 0.0383,0.007 -0.045,-0.0983 -0.0811,-0.0838 -0.38816,0.15579 -0.75061,0.76213 -1.11996,0.56585 -0.78025,-0.41464 -0.85114,-1.73955 -1.67746,-2.05246 -6.47782,-2.452998 -2.32945,0.80421 -2.01807,1.0766 1.09471,0.61374 2.22594,1.16648 3.28414,1.84123 0.0876,0.0559 -0.21215,0.0136 -0.30628,0.0576 -0.44975,0.21004 -0.82058,0.74708 -1.31467,0.69943 -0.65252,-0.0629 -1.06971,-0.80722 -1.69923,-0.99011 -1.10519,-0.32108 -2.28498,-0.28774 -3.41683,-0.49621 -0.22498,-0.0414 0.45749,-0.004 0.68623,-0.007 1.07457,0.59741 2.18699,1.13131 3.22371,1.79222 0.1318,0.084 0.32138,0.28277 0.22928,0.40907 -0.27116,0.37178 -0.76697,0.51227 -1.11813,0.80965 -0.4855,0.41115 -0.76156,1.19306 -1.38664,1.31153 -1.43683,0.27231 -2.92864,-0.38263 -4.38178,-0.21828 -0.39748,0.045 0.69436,0.39737 1.04153,0.59606 0.59267,-0.0722 1.23296,0.0272 1.77799,-0.21649 0.16983,-0.0759 -0.27394,-0.56126 -0.38017,-0.40855 -0.25895,0.37227 -0.0874,0.91687 -0.26395,1.33457 -0.18752,0.44371 -3.47919,1.28053 -0.60802,0.48912 -0.56807,0.65242 -1.1448,1.68948 -2.1859,1.31621 -0.18167,-0.0651 -0.41177,-0.26172 -0.36546,-0.44907 0.137,-0.55425 1.77321,1.48806 -0.15591,-0.59391 -1.78145,4.78143 0.24926,2.08844 -2.79694,2.7622 -0.35688,0.0789 0.71033,0.27505 1.07271,0.2273 0.13006,-0.0172 -0.21301,-0.21373 -0.19245,-0.3433 0.3595,-2.26666 0.88308,-1.10646 0.26573,-2.17981 -1.01523,1.24559 -2.10846,2.43148 -3.04569,3.73676 -0.0964,0.13425 -0.13439,0.58209 0.007,0.49579 0.69651,-0.42639 1.34568,-0.96945 1.83506,-1.62323 0.2862,-0.38233 -0.49002,-1.29566 -0.0324,-1.43238 0.2245,-0.0671 0.29375,0.36513 0.44062,0.5477 -0.8587,1.27196 -2.07491,2.36535 -2.5761,3.81589 -0.1294,0.37451 0.77631,0.57386 1.12462,0.38498 0.25789,-0.13985 -0.32574,-0.52253 -0.33005,-0.81586 -0.005,-0.37012 0.26193,-0.70058 0.3024,-1.06853 0.0344,-0.31272 -1.212,-1.96218 -0.27028,0.90428 0.28138,3.33505 1.2764,3.65883 -3.28968,3.40249 -0.26012,-0.0146 -0.46287,-0.54105 -0.28229,-0.72886 0.86928,-0.90408 2.03611,-1.46547 3.07199,-2.17255 0.0311,-0.0212 0.0949,-0.0345 0.11302,-0.002 0.22789,0.41575 0.39629,0.86143 0.59444,1.29215 0.12968,0.26576 -3.62875,2.09964 -3.75843,1.83388 z"
         id="path4844"
         style="fill:#000000;fill-opacity:0.36619717;stroke:none;stroke-width:0.26458332" />
    </g>
    <rect
       transform="rotate(-7.5466222)"
       y="82.904457"
       x="64.686462"
       height="76.171814"
       width="5.6126599"
       id="rect4876"
       style="display:inline;fill:#000000;stroke:#000000;stroke-width:0.26458332" />
    <rect
       style="display:inline;fill:#000000;stroke:#000000;stroke-width:0.17612673"
       id="rect4878"
       width="5.7011166"
       height="33.229877"
       x="-107.02644"
       y="28.118795"
       transform="rotate(-120)"
       inkscape:transform-center-x="12.859608"
       inkscape:transform-center-y="6.7718446" />
    <g
       id="g4971"
       transform="matrix(0.36744258,0,0,0.4507916,23.377601,106.31496)"
       style="display:inline">
      <circle
         r="23.118814"
         cy="-0.8718887"
         cx="78.443604"
         id="path4882"
         style="fill:#000000;fill-opacity:1;stroke:none;stroke-width:0.26458332" />
      <path
         sodipodi:nodetypes="cccccc"
         inkscape:connector-curvature="0"
         id="path4884"
         d="m 74.615473,-23.54327 1.18017,-4.72068 6.41529,-1.997211 -2.17878,3.449728 1.45252,3.268163 z"
         style="fill:#000000;stroke:#000000;stroke-width:0.11982654px;stroke-linecap:butt;stroke-linejoin:miter;stroke-opacity:1" />
      <path
         style="fill:#000000;stroke:#000000;stroke-width:0.11982654px;stroke-linecap:butt;stroke-linejoin:miter;stroke-opacity:1"
         d="m 82.271734,21.974133 -1.18017,4.72068 -6.41529,1.997211 2.17879,-3.449728 -1.45253,-3.268163 z"
         id="path4886"
         inkscape:connector-curvature="0"
         sodipodi:nodetypes="cccccc" />
      <path
         style="fill:#000000;stroke:#000000;stroke-width:0.11982654px;stroke-linecap:butt;stroke-linejoin:miter;stroke-opacity:1"
         d="m 63.748994,-18.580117 -1.338282,-4.678314 4.557198,-4.93728 -0.162015,4.076942 2.892001,2.104052 z"
         id="path4888"
         inkscape:connector-curvature="0"
         sodipodi:nodetypes="cccccc" />
      <path
         sodipodi:nodetypes="cccccc"
         inkscape:connector-curvature="0"
         id="path4890"
         d="m 93.138212,17.01098 1.338283,4.678314 -4.557198,4.93728 0.162023,-4.076947 -2.892009,-2.104047 z"
         style="fill:#000000;stroke:#000000;stroke-width:0.11982654px;stroke-linecap:butt;stroke-linejoin:miter;stroke-opacity:1" />
      <path
         style="fill:#000000;stroke:#000000;stroke-width:0.11982654px;stroke-linecap:butt;stroke-linejoin:miter;stroke-opacity:1"
         d="m 86.507696,-22.408247 3.382397,-3.498144 6.55441,1.478009 -3.611743,1.898163 -0.376162,3.556572 z"
         id="path4892"
         inkscape:connector-curvature="0"
         sodipodi:nodetypes="cccccc" />
      <path
         sodipodi:nodetypes="cccccc"
         inkscape:connector-curvature="0"
         id="path4894"
         d="m 70.379511,20.839111 -3.382397,3.498143 -6.55441,-1.478009 3.611752,-1.898157 0.376153,-3.556577 z"
         style="fill:#000000;stroke:#000000;stroke-width:0.11982654px;stroke-linecap:butt;stroke-linejoin:miter;stroke-opacity:1" />
      <path
         style="fill:#000000;stroke:#000000;stroke-width:0.11982654px;stroke-linecap:butt;stroke-linejoin:miter;stroke-opacity:1"
         d="m 55.684902,3.0435618 -4.72068,-1.18017 -1.997211,-6.41529 3.449728,2.17878 3.268163,-1.45252 z"
         id="path4910"
         inkscape:connector-curvature="0"
         sodipodi:nodetypes="cccccc" />
      <path
         sodipodi:nodetypes="cccccc"
         inkscape:connector-curvature="0"
         id="path4912"
         d="m 101.2023,-4.6126992 4.72068,1.18017 1.99722,6.41529 -3.44973,-2.17879001 -3.26817,1.45253001 z"
         style="fill:#000000;stroke:#000000;stroke-width:0.11982654px;stroke-linecap:butt;stroke-linejoin:miter;stroke-opacity:1" />
      <path
         sodipodi:nodetypes="cccccc"
         inkscape:connector-curvature="0"
         id="path4914"
         d="m 60.648055,13.910041 -4.678314,1.338282 -4.93728,-4.557198 4.076942,0.162015 2.104052,-2.8920012 z"
         style="fill:#000000;stroke:#000000;stroke-width:0.11982654px;stroke-linecap:butt;stroke-linejoin:miter;stroke-opacity:1" />
      <path
         style="fill:#000000;stroke:#000000;stroke-width:0.11982654px;stroke-linecap:butt;stroke-linejoin:miter;stroke-opacity:1"
         d="m 96.239152,-15.479177 4.678318,-1.338283 4.93728,4.557198 -4.07695,-0.162023 -2.104048,2.8920088 z"
         id="path4916"
         inkscape:connector-curvature="0"
         sodipodi:nodetypes="cccccc" />
      <path
         sodipodi:nodetypes="cccccc"
         inkscape:connector-curvature="0"
         id="path4918"
         d="m 56.819925,-8.8486612 -3.498144,-3.3823968 1.478009,-6.55441 1.898163,3.611743 3.556572,0.376162 z"
         style="fill:#000000;stroke:#000000;stroke-width:0.11982654px;stroke-linecap:butt;stroke-linejoin:miter;stroke-opacity:1" />
      <path
         style="fill:#000000;stroke:#000000;stroke-width:0.11982654px;stroke-linecap:butt;stroke-linejoin:miter;stroke-opacity:1"
         d="m 100.06728,7.2795238 3.49815,3.3823972 -1.47801,6.55441 -1.89816,-3.611752 -3.556577,-0.376153 z"
         id="path4920"
         inkscape:connector-curvature="0"
         sodipodi:nodetypes="cccccc" />
      <path
         style="fill:#000000;stroke:#000000;stroke-width:0.11982654px;stroke-linecap:butt;stroke-linejoin:miter;stroke-opacity:1"
         d="m 68.855528,-21.776992 -0.08185,-4.865278 5.679778,-3.589557 -1.211685,3.896092 2.24889,2.780863 z"
         id="path4922"
         inkscape:connector-curvature="0"
         sodipodi:nodetypes="cccccc" />
      <path
         sodipodi:nodetypes="cccccc"
         inkscape:connector-curvature="0"
         id="path4924"
         d="m 88.031679,20.207857 0.08185,4.865277 -5.679778,3.589557 1.211694,-3.896094 -2.248899,-2.780861 z"
         style="fill:#000000;stroke:#000000;stroke-width:0.11982654px;stroke-linecap:butt;stroke-linejoin:miter;stroke-opacity:1" />
      <path
         sodipodi:nodetypes="cccccc"
         inkscape:connector-curvature="0"
         id="path4926"
         d="m 59.643874,-14.170503 -2.503518,-4.172531 3.124053,-5.948536 0.898696,3.979956 3.338027,1.283853 z"
         style="fill:#000000;stroke:#000000;stroke-width:0.11982654px;stroke-linecap:butt;stroke-linejoin:miter;stroke-opacity:1" />
      <path
         style="fill:#000000;stroke:#000000;stroke-width:0.11982654px;stroke-linecap:butt;stroke-linejoin:miter;stroke-opacity:1"
         d="m 97.243332,12.601367 2.503519,4.172532 -3.124053,5.948536 -0.898689,-3.979964 -3.338034,-1.283846 z"
         id="path4928"
         inkscape:connector-curvature="0"
         sodipodi:nodetypes="cccccc" />
      <path
         sodipodi:nodetypes="cccccc"
         inkscape:connector-curvature="0"
         id="path4930"
         d="m 80.636299,-23.758578 2.361758,-4.254377 6.713611,-0.268759 -2.997395,2.768273 0.557164,3.532743 z"
         style="fill:#000000;stroke:#000000;stroke-width:0.11982654px;stroke-linecap:butt;stroke-linejoin:miter;stroke-opacity:1" />
      <path
         style="fill:#000000;stroke:#000000;stroke-width:0.11982654px;stroke-linecap:butt;stroke-linejoin:miter;stroke-opacity:1"
         d="m 76.250908,22.189443 -2.361758,4.254376 -6.713611,0.268759 2.997405,-2.768269 -0.557174,-3.532745 z"
         id="path4932"
         inkscape:connector-curvature="0"
         sodipodi:nodetypes="cccccc" />
      <path
         sodipodi:nodetypes="cccccc"
         inkscape:connector-curvature="0"
         id="path4934"
         d="m 57.451179,8.8035074 -4.865277,0.081845 -3.589557,-5.6797781 3.896091,1.2116846 2.780863,-2.2488894 z"
         style="fill:#000000;stroke:#000000;stroke-width:0.11982654px;stroke-linecap:butt;stroke-linejoin:miter;stroke-opacity:1" />
      <path
         style="fill:#000000;stroke:#000000;stroke-width:0.11982654px;stroke-linecap:butt;stroke-linejoin:miter;stroke-opacity:1"
         d="m 99.436023,-10.372642 4.865277,-0.08185 3.58957,5.6797762 -3.8961,-1.2116937 -2.78087,2.2489009 z"
         id="path4936"
         inkscape:connector-curvature="0"
         sodipodi:nodetypes="cccccc" />
      <path
         style="fill:#000000;stroke:#000000;stroke-width:0.11982654px;stroke-linecap:butt;stroke-linejoin:miter;stroke-opacity:1"
         d="m 65.057668,18.015162 -4.172531,2.503518 -5.948536,-3.124053 3.979956,-0.898696 1.283853,-3.338028 z"
         id="path4938"
         inkscape:connector-curvature="0"
         sodipodi:nodetypes="cccccc" />
      <path
         sodipodi:nodetypes="cccccc"
         inkscape:connector-curvature="0"
         id="path4940"
         d="m 91.829539,-19.584297 4.172535,-2.50352 5.948536,3.124054 -3.979966,0.89869 -1.283847,3.338033 z"
         style="fill:#000000;stroke:#000000;stroke-width:0.11982654px;stroke-linecap:butt;stroke-linejoin:miter;stroke-opacity:1" />
      <path
         style="fill:#000000;stroke:#000000;stroke-width:0.11982654px;stroke-linecap:butt;stroke-linejoin:miter;stroke-opacity:1"
         d="m 55.469593,-2.9772635 -4.254376,-2.3617581 -0.268759,-6.7136104 2.768272,2.9973947 3.532743,-0.557164 z"
         id="path4942"
         inkscape:connector-curvature="0"
         sodipodi:nodetypes="cccccc" />
      <path
         sodipodi:nodetypes="cccccc"
         inkscape:connector-curvature="0"
         id="path4944"
         d="m 101.41761,1.4081278 4.25438,2.361757 0.26876,6.7136112 -2.76827,-2.9974048 -3.532745,0.557174 z"
         style="fill:#000000;stroke:#000000;stroke-width:0.11982654px;stroke-linecap:butt;stroke-linejoin:miter;stroke-opacity:1" />
    </g>
    <path
       style="display:inline;fill:#000000;stroke:#000000;stroke-width:0.18885401"
       d="m 108.69183,147.65527 c -3.71782,-1.91688 -2.15762,-1.07976 -7.28204,-4.02931 4.64774,-18.85523 10.75648,-18.33458 28.99989,-17.63677 4.36157,0.16683 8.37594,1.14633 12.78567,4.88458 3.92945,3.93061 5.60926,3.13238 9.36603,2.70612 3.93709,-0.44672 4.42278,-4.37586 8.03352,-10.30062 0.10905,11.51081 -3.32903,12.69138 -9.57672,13.59371 -3.3683,0.48647 -4.95923,0.87334 -8.47032,-1.02819 -6.43128,-3.28773 -7.04028,-4.4706 -13.30679,-3.66896 -11.53176,1.47521 -14.40534,-2.66309 -20.54924,15.47944 z"
       id="path4973"
       inkscape:connector-curvature="0"
       sodipodi:nodetypes="ccscscscsc" />
    <rect
       style="display:inline;fill:#000000;fill-opacity:0.36470588;stroke:none;stroke-width:0.26458332"
       id="rect4975"
       width="9.8273811"
       height="74.461304"
       x="-161.86006"
       y="3.2965276"
       transform="rotate(-100.25832)"
       clip-path="url(#clipPath5009)" />
    <rect
       transform="matrix(0.82004635,-0.57229711,0.57343718,0.81924953,0,0)"
       y="60.20549"
       x="-14.039375"
       height="119.88866"
       width="9.8273964"
       id="rect4977"
       style="display:inline;fill:#000000;fill-opacity:0.36470588;stroke:none;stroke-width:0.33572721"
       clip-path="url(#clipPath5005)" />
    <rect
       style="display:inline;fill:#000000;fill-opacity:0.36470588;stroke:none;stroke-width:0.33572721"
       id="rect4979"
       width="9.8273964"
       height="119.88866"
       x="40.040867"
       y="55.096577"
       transform="matrix(0.94639237,-0.32301933,0.32433538,0.94594216,0,0)"
       clip-path="url(#clipPath5001)" />
    <rect
       transform="matrix(0.83569907,0.54918764,-0.54802471,0.83646214,0,0)"
       y="-10.347087"
       x="86.388313"
       height="119.88866"
       width="9.8273964"
       id="rect4981"
       style="display:inline;fill:#000000;fill-opacity:0.36470588;stroke:none;stroke-width:0.33572721"
       clip-path="url(#clipPath4997)" />
    <path
       style="display:inline;fill:#000000;fill-opacity:0.36470588;stroke:none;stroke-width:0.26458332"
       id="path4983"
       d="m 107.97231,120.94157 c 4.48036,-0.41113 1.92278,0.40962 5.22651,-1.99517 0.55658,-0.40513 1.2732,-0.59936 1.75119,-1.09477 0.47177,-0.48896 0.46774,-1.36275 1.01214,-1.76929 3.74545,-2.79698 5.14725,-2.47543 9.58038,-3.18799 1.05097,-0.21395 2.08451,-0.7357 3.15293,-0.64184 0.97897,0.086 2.40986,0.22177 2.71171,1.15701 0.22784,0.70596 -1.38818,0.72318 -2.12686,0.65507 -0.32163,-0.0296 -0.50502,-0.58536 -0.38981,-0.8871 0.22428,-0.58745 0.75496,-1.03085 1.26334,-1.40091 0.52264,-0.38043 1.17668,-0.53565 1.76502,-0.80348 1.11989,-0.93543 1.31969,-1.40519 0.98724,-0.60126 -0.1739,0.42052 -0.2692,0.88434 -0.52697,1.25935 -0.0564,0.0821 -0.19128,-0.14903 -0.16941,-0.24622 0.35471,-1.57607 0.60307,-1.80979 1.33946,-3.03707 0.38921,-0.22522 0.73198,-0.56421 1.16763,-0.67567 2.84571,-0.72813 3.15363,0.27749 -0.62391,2.13605 -0.27244,0.13404 -0.52134,-0.37967 -0.62085,-0.66653 -0.19918,-0.57416 -0.49542,-1.25741 -0.23741,-1.80764 0.29565,-0.6305 1.11482,-0.83483 1.67223,-1.25225 -2.92026,-2.51157 2.58786,-0.85229 2.04713,-0.41381 -0.42835,0.34736 -1.05923,0.33372 -1.54102,0.60207 -0.12355,0.0688 0.34842,0.13987 0.42379,0.0202 0.63291,-1.85531 0.22514,-1.0657 1.10991,-2.42404 0.27946,-0.23874 0.51204,-0.54712 0.83838,-0.71623 1.64382,-0.8518 -0.92379,2.04218 -0.86424,0.35715 0.0183,-0.51847 1.52432,-2.26949 1.85947,-2.68359 0.2754,-0.49779 0.5808,-0.980134 0.82619,-1.493392 0.047,-0.0984 0.69832,-2.751703 1.80762,-2.025361 0.32157,0.210555 0.011,1.29573 -0.32369,1.106736 -1.39865,-0.789792 0.40915,-2.303246 0.69748,-2.645143 2.59115,1.519338 0.13093,-1.150887 0.57987,-1.255358 0.31551,-0.07342 0.842,-0.300204 0.97182,-0.0034 0.13196,0.301694 -0.61608,0.418923 -0.64667,0.746787 -0.0773,0.827942 0.9229,1.068122 0.32826,0.90025 1.02701,-1.067859 -1.14787,-2.927422 -0.46834,-4.137785 0.22793,-0.405987 0.85024,-0.380873 1.28488,-0.547806 0.10606,-0.04073 -0.29653,0.05457 -0.29646,0.168187 5.2e-4,0.73024 0.27984,1.439551 0.30525,2.169351 -0.91045,-1.516248 -1.47544,-1.960795 -1.47378,-3.774511 5.3e-4,-0.484183 0.21181,-0.94587 0.35314,-1.408968 0.1214,-0.397822 0.28238,-0.782579 0.4339,-1.169937 0.01,-0.02506 0.0598,-0.08877 0.0488,-0.06422 -0.14297,0.319383 -0.29706,0.633674 -0.4456,0.95051 -0.10898,0.672084 -0.32936,-1.290865 -0.19674,-1.920603 0.1501,-0.712705 0.70002,-1.278493 1.01002,-1.937567 0.23422,-0.497951 0.3594,-1.045459 0.62083,-1.529675 0.0881,-0.163195 0.42199,-0.562391 0.40883,-0.377397 -0.0464,0.651603 -0.34433,1.260311 -0.51649,1.890464 -0.16018,-0.0342 -0.44087,0.05632 -0.48054,-0.102597 -0.13362,-0.535126 0.0291,-1.102726 0.0419,-1.654128 0.0172,-0.737952 -0.0627,-2.870274 0.42859,-3.571036 1.20554,-1.719683 1.69349,-0.06877 1.2085,-1.276043 0.87302,1.201044 2.73873,2.123154 2.61905,3.603135 -0.0779,0.964004 -2.04425,0.186947 -2.88719,-0.287215 -0.78545,-0.441823 -1.46726,-1.314681 -1.55504,-2.211584 -0.0823,-0.84111 0.90509,-1.458222 1.11578,-2.276668 0.17517,-0.680508 -0.095,-1.403347 -0.0928,-2.106036 0.16318,0.31223 0.32635,0.624459 0.48952,0.936692 -0.003,0.06085 0.0153,0.238828 -0.008,0.182549 -0.38625,-0.933262 -0.99894,-2.547493 -0.75237,-3.570052 0.55575,-2.304696 1.4176,0.134287 0.58171,-1.668748 0.0131,-0.290063 -0.14677,0.15781 -0.10177,0.227727 0.0575,0.08932 0.40469,0.09108 0.31718,0.03087 -0.28597,-0.196795 -0.80191,-0.136462 -0.93594,-0.456682 -0.18847,-0.45026 -0.0292,-2.152409 0.0227,-2.846802 0.0186,-0.12936 -0.006,-0.50342 0.0558,-0.388083 0.21626,0.405815 0.21531,0.905174 0.435,1.309139 0.16872,0.310256 1.01884,0.954236 0.70637,0.789665 -0.57197,-0.301236 -1.14241,-0.683916 -1.51226,-1.214101 -0.24712,-0.354248 -0.13675,-0.853276 -0.22488,-1.276115 -0.0714,-0.342662 -0.16897,-0.679349 -0.25346,-1.019021 0.0203,-0.186624 0.30717,-0.367879 0.229,-0.550659 -0.0445,-0.104135 -0.31798,-0.06207 -0.33612,0.04972 -0.0624,0.384633 0.42296,1.428226 0.13972,1.160619 -1.62559,-1.535859 -1.26477,-2.531565 -1.27215,-4.450808 -0.12059,-0.51195 -0.21237,-1.031557 -0.36178,-1.53585 -0.0351,-0.118306 -0.0876,0.303241 0.0163,0.369805 0.7693,0.492882 2.60454,0.313174 2.45703,1.214837 -0.1415,0.864881 -1.81288,-0.158745 -2.55304,-0.628007 -0.42967,-0.27241 -0.38866,-0.94229 -0.63009,-1.390102 -0.25133,-0.466175 -0.56319,-0.897078 -0.84479,-1.345616 -0.0171,-0.28526 -0.26103,-1.049911 -0.0513,-0.855784 0.47423,0.438986 0.82727,1.054931 0.95153,1.689095 0.0406,0.207261 -0.39757,0.418788 -0.56399,0.288742 -0.34288,-0.267935 -0.25721,-0.871717 -0.56965,-1.174607 -2.16931,-2.103064 -1.14456,0.491244 -1.84588,-2.068097 0.1966,0.29673 0.30553,0.67596 0.58979,0.890193 0.54492,0.410684 1.29849,0.493893 1.82408,0.929042 0.1432,0.118566 -0.35622,0.144561 -0.54175,0.132641 -2.29132,-0.147195 -2.61464,0.140902 -3.5968,-1.900989 -0.0812,-0.168809 0.0739,-0.367278 0.11089,-0.550918 -0.13485,0.186529 -0.44926,0.333804 -0.40454,0.559586 0.0336,0.16995 0.36655,-0.0615 0.51936,0.02014 0.44002,0.23509 0.81308,0.579731 1.19782,0.897311 0.15196,0.125428 -0.30819,-0.264549 -0.49749,-0.319231 -0.0936,-0.02703 -0.18085,0.116311 -0.27606,0.09578 -0.97655,-0.21055 -1.92925,-0.519496 -2.89388,-0.779243 -0.80447,-1.85901 -0.15521,-0.281188 -0.0133,-0.208317 0.65915,0.338452 1.43938,0.385112 2.10901,0.702297 0.10006,0.04739 -0.18987,0.115467 -0.29192,0.158401 -0.22077,0.09288 -0.44016,0.298402 -0.67433,0.248126 -1.07268,-0.230291 -2.07693,-0.707827 -3.11539,-1.061739 -0.0149,-0.484449 -0.47647,0.695606 -0.22006,0.79401 0.54921,0.210775 1.15883,-0.203401 1.7389,-0.301236 0.16431,-0.02771 0.66026,-0.06209 0.49416,-0.07538 -0.38827,-0.03106 -0.78817,-0.06328 -1.16836,0.02146 -0.74272,0.165526 -1.44385,0.481071 -2.16577,0.721606 0.59816,-2.512097 -1.25955,-0.451083 -0.94104,-0.348787 0.44849,0.144042 0.98583,0.0095 1.39546,-0.223078 0.27961,-0.158774 0.17525,-0.95431 0.47553,-0.839304 0.3096,0.118579 0.17313,0.775169 -0.0781,0.991532 -0.39369,0.339098 -1.00814,0.252145 -1.5122,0.378216 -4.08369,-0.242736 -0.0369,0.122823 -2.7e-4,0.113316 0.25126,-0.06534 -0.45943,-0.242038 -0.68614,-0.368551 -0.0346,-0.01932 0.10776,0.0071 0.10931,0.04666 0.0106,0.269373 0.0996,0.600541 -0.0759,0.805167 -0.27894,0.325231 -0.75594,0.403596 -1.13391,0.605393 -0.36319,0.141097 -0.67312,0.437621 -0.54756,-0.278722 0.0106,-0.0603 0.14951,0.06001 0.13877,0.120274 -0.0299,0.168016 -0.25161,0.281556 -0.24071,0.451869 0.009,0.139178 0.36647,-0.263221 0.24807,-0.336913 -0.15288,-0.09515 -0.34124,0.115157 -0.51186,0.172739 0.53785,2.73369 0.29844,0.428476 -0.35102,0.541456 -0.22982,0.03998 0.21554,0.413758 0.32321,0.620691 0.0154,0.02963 -0.0425,-0.05562 -0.0465,-0.08879 -0.0422,-0.350483 -0.38771,-0.863475 -0.0912,-1.055103 0.26223,-0.169492 0.36351,0.507762 0.54527,0.761643 0.24185,0.53571 -0.28463,1.75545 0.3943,2.118752 0.19711,0.105476 -0.15284,-0.871083 -0.0593,-0.668028 0.12736,0.27655 0.11025,0.598874 0.16538,0.898308 0.0601,0.307033 -4.28195,1.157489 -4.34208,0.850458 v 0 c 0.1867,-0.01474 0.6095,0.136443 0.56012,-0.04422 -0.10131,-0.370687 -0.53285,-0.553863 -0.79927,-0.830792 -0.0211,0.119341 0.0575,0.367329 -0.0633,0.358024 -0.12769,-0.0098 -0.16844,-0.261776 -0.10105,-0.370679 0.16307,-0.263496 0.81685,-0.316587 0.70524,-0.605655 -0.15587,-0.403667 -0.77488,-0.3854 -1.16231,-0.578101 0.67795,0.08398 0.0906,0.08532 0.15815,-1.278599 0.009,-0.184251 0.14622,-0.347012 0.155,-0.531278 0.006,-0.122947 -0.15076,-0.234408 -0.11298,-0.351552 0.12041,-0.37334 0.55862,-0.642702 0.56014,-1.034976 7.9e-4,-0.187092 -0.37056,-0.05199 -0.55584,-0.07798 0.29404,-0.07313 0.69634,0.01998 0.88211,-0.219392 0.2469,-0.318117 0.0554,-0.818187 0.21134,-1.18944 0.0389,-0.09252 0.23992,0.05328 0.29984,-0.02723 1.0216,-1.372521 -0.0405,-1.147868 1.66556,-1.554086 0.0412,-0.0098 0.0429,0.07312 0.0644,0.109683 -0.0909,0.189 -0.34945,0.371819 -0.27271,0.567 0.0584,0.148526 0.37462,0.07373 0.47624,-0.04934 0.22496,-0.272447 0.16225,-0.711716 0.38116,-0.989047 0.1244,-0.157607 0.36882,-0.165724 0.5648,-0.209378 2.52291,-0.561959 3.49882,-0.421857 1.27588,-0.527336 -1.15411,1.526114 -0.43363,0.341445 1.1736,-0.253584 0.66309,-0.245486 1.372,-0.527884 2.07412,-0.444434 0.30659,0.03644 0.28302,0.579027 0.53688,0.754755 0.13203,0.0914 -0.0803,-0.310978 -0.12042,-0.466465 -0.54664,0.0095 -1.11127,-0.110829 -1.63991,0.02858 -0.13511,0.03563 -0.18516,0.441529 -0.0477,0.416452 0.36582,-0.06674 0.58215,-0.543557 0.95208,-0.581443 0.0759,-0.0078 2.84891,0.167156 3.35051,0.62725 0.18025,0.165338 0.0664,0.484672 0.0995,0.727006 -0.78261,-0.232484 -1.57969,-0.420862 -2.34782,-0.697454 -0.0613,-0.02207 -0.14369,-0.156978 -0.0819,-0.177449 0.29366,-0.09722 0.61484,-0.06887 0.92252,-0.100848 0.96123,-0.09992 1.93959,-0.498991 2.88419,-0.294852 2.03637,0.440084 -0.30138,1.33749 0.71937,0.899028 -0.74549,-0.09358 -1.52714,-0.033 -2.23647,-0.280734 -0.14988,-0.05235 0.0664,-0.365529 0.21326,-0.425865 0.27442,-0.11275 0.59295,-0.03081 0.88961,-0.02727 0.84015,0.01 1.71681,-0.179681 2.51973,0.06786 0.31464,0.097 0.23295,0.650126 0.4873,0.859208 0.26658,0.21913 0.65096,0.229325 0.97643,0.343987 -1.11881,1.47401 0.19138,0.08077 -0.71895,-0.367281 -0.4097,-0.201645 -0.91835,0.06032 -1.35707,0.186965 -0.26192,0.07561 0.54888,-0.07912 0.81724,-0.03113 3.06834,0.548632 2.56734,-0.149714 2.79786,1.995485 0.10409,-0.168381 0.41669,-0.336973 0.31226,-0.50514 -0.0948,-0.152662 -0.54345,0.0311 -0.49857,0.205113 0.0472,0.182843 0.37559,0.05642 0.5643,0.04973 0.28002,-0.0099 0.60362,-0.25776 0.83471,-0.09931 2.4214,1.660263 2.57992,1.398677 1.76491,2.169964 -0.7338,-0.360476 0.58096,0.199162 -0.80771,0.273285 -0.3724,0.01987 -1.43627,-0.402944 -1.07701,-0.302884 1.14489,0.318881 2.46546,0.270478 3.43393,0.959342 1.17481,0.835628 0.34623,2.259312 0.0255,3.097215 0.045,0.12391 0.25433,0.427427 0.13487,0.371724 -0.2688,-0.125333 -0.90079,-0.764342 -0.64717,-0.610595 0.48271,0.292621 0.97367,0.604854 1.34254,1.032134 0.20614,0.238779 0.23086,0.588148 0.31798,0.891326 0.30768,1.070599 0.40559,1.718691 0.61,2.799128 0.68838,-0.138031 -0.18795,0.07011 -0.61121,-0.211662 -0.3405,-0.226684 -1.18301,-0.822198 -0.79081,-0.938376 1.33907,-0.396658 3.62681,2.495343 1.91174,3.433662 -0.0737,0.09085 -0.15022,0.365683 -0.221,0.272563 -0.14381,-0.189188 -0.003,-0.491464 -0.10753,-0.704763 -0.0662,-0.134694 -0.41209,-0.404058 -0.36683,-0.260977 0.0755,0.238636 0.34125,0.371017 0.46959,0.585896 0.80898,1.354444 0.61077,1.198301 0.82805,2.836534 -0.005,0.515194 0.0549,1.035045 -0.0144,1.545585 -0.0361,0.266234 -0.0456,0.843844 -0.29706,0.74929 -0.28832,-0.108406 0.10427,-0.725334 -0.13963,-0.913477 -0.26917,-0.20764 -1.32192,-0.136411 -1.01967,0.01918 2.68678,1.383038 1.71954,-1.198901 2.06116,2.732379 -0.0638,0.554267 -0.11831,1.109691 -0.19146,1.662805 -0.0649,0.490258 0.19124,1.195864 -0.22245,1.466811 -2.43386,1.594035 -1.12662,-1.313392 -1.77456,-1.532639 -1.24965,-0.422849 -8.53976,1.949717 1.15391,3.785815 -0.69142,-0.22006 0.52139,0.129278 0.25492,0.408437 -0.28313,0.296619 -0.82323,0.115961 -1.19658,0.285551 -0.11211,0.05093 -0.0416,0.308359 -0.16245,0.331775 -0.0233,0.0045 -1.03259,-1.507456 0.24726,0.387773 0.0931,0.841457 0.23561,1.678906 0.27942,2.524366 0.0461,0.890611 -0.0505,0.883121 -0.87197,1.096777 -0.0752,0.01955 0.25862,-0.140668 0.18116,-0.146627 -0.43164,-0.0332 -1.06323,-0.30339 -1.29734,0.06077 -0.19259,0.299575 0.64611,0.299808 0.96917,0.44971 0.30737,0.557911 0.83918,1.042178 0.92211,1.673736 0.0558,0.425169 -0.41083,0.757401 -0.54964,1.163134 -0.10141,0.296421 -0.11238,0.616429 -0.16484,0.925293 -0.0553,0.325803 0.091,0.761929 -0.15852,0.978646 -0.98528,0.855877 -1.41919,-0.987758 -1.54313,-1.245695 1.16563,1.065427 1.8828,1.487583 2.06463,3.550526 0.0385,0.437417 -0.51495,0.714973 -0.81898,1.031817 -0.0727,0.0758 -0.18479,0.122816 -0.28984,0.123758 -0.99847,0.0089 -1.02459,-0.781563 -1.63218,-1.654868 0.12037,-0.133384 0.20103,-0.481753 0.3611,-0.400158 1.02106,0.520491 1.67411,1.798277 1.69943,2.901606 0.007,0.306117 -1.17184,1.751787 -1.24448,1.982303 -0.056,0.177652 0.1873,0.322016 0.28095,0.483026 -0.1519,0.06453 -0.30023,0.138171 -0.45569,0.193588 -0.22736,0.08104 -0.59087,-0.0042 -0.69137,0.215302 -0.24274,0.530074 -0.002,1.189759 -0.2028,1.737238 -0.0676,0.184671 -0.38372,0.128771 -0.52889,0.261441 -1.36121,1.2439 -1.01551,0.99269 -1.18802,2.78927 -0.18729,0.11288 -0.43205,0.16267 -0.56187,0.33865 -0.1226,0.16619 -0.0517,0.41552 -0.13416,0.60485 -0.19484,0.44727 -0.40641,0.89401 -0.69131,1.29005 -0.33894,0.47114 -0.7725,0.8665 -1.1666,1.29257 -0.0974,0.10525 -0.32757,0.15898 -0.30734,0.30092 0.0254,0.17829 0.26784,0.24083 0.40175,0.36125 -0.18286,-0.21221 -0.38792,-0.40715 -0.54857,-0.63663 -0.0455,-0.065 -0.0197,-0.29996 -0.0587,-0.23084 -1.81661,3.21388 1.43861,-1.44851 -1.38306,2.82641 -0.12844,0.1946 -0.32188,0.63099 -0.50385,0.48521 -0.2251,-0.18034 0.02,-0.57651 0.0301,-0.86476 0.15729,-0.25576 0.82508,-1.08868 -0.64006,-0.4734 -0.17961,0.0754 0.64365,0.0818 0.53214,0.2415 -0.76854,1.10074 -2.15697,1.73666 -2.75315,2.93952 -0.12137,0.24488 1.56757,-0.23524 1.89488,-0.32373 0.0499,-0.0657 0.19107,-0.12581 0.14967,-0.19719 -0.17557,-0.30266 -0.48103,-1.03477 -0.71166,-0.77163 -0.27404,0.31267 0.34394,0.78586 0.33486,1.20154 -0.0176,0.80417 -0.0183,1.67664 -0.41306,2.37748 -0.39034,0.69301 -1.62424,0.50233 -2.09945,1.13399 -0.30432,-0.19786 -0.60643,-0.39917 -0.91297,-0.59358 -0.13019,-0.0826 0.38432,0.10385 0.38386,0.25801 -0.002,0.56813 0.0434,1.29151 -0.38967,1.65925 -1.04272,0.88543 -2.56665,1.01722 -3.68685,1.80233 -0.1936,0.13568 0.41169,0.23255 0.61754,0.34883 -0.88368,-0.044 -1.76735,-0.088 -2.65103,-0.13193 -4.63414,1.91332 -2.16074,1.45604 -7.45194,1.18737 -0.6834,0.21047 -0.72784,1.23328 -1.14454,1.81439 -0.6161,0.85919 -1.14784,1.81288 -1.95019,2.50137 -2.75449,2.36364 -3.77712,2.15906 -7.16368,2.90974 -0.3986,0.14293 -2.41986,-5.49424 -2.02125,-5.63716 z"
       inkscape:connector-curvature="0" />
    <path
       transform="rotate(-23.530073)"
       style="fill:#000000;stroke:#000000;stroke-width:0.26458332"
       inkscape:transform-center-x="6.7899725"
       inkscape:transform-center-y="-12.35873"
       d="m 26.72932,95.377762 h 1.765195 l 0.438053,0.898919 0.983475,0.640963 0.471561,74.631936 h -5.61266 V 96.871555 c -0.106766,-2.002278 0.07773,-1.493793 1.954376,-1.493793 z"
       id="rect5013"
       inkscape:connector-curvature="0"
       sodipodi:nodetypes="cccccccc" />
  </g>
</svg>
