<?xml version="1.0" encoding="UTF-8"?>
<!DOCTYPE svg PUBLIC "-//W3C//DTD SVG 1.1//EN" "http://www.w3.org/Graphics/SVG/1.1/DTD/svg11.dtd">
<!-- Creator: CorelDRAW X6 -->
<svg xmlns="http://www.w3.org/2000/svg" xml:space="preserve" width="8.26772in" height="11.6929in" version="1.1" style="shape-rendering:geometricPrecision; text-rendering:geometricPrecision; image-rendering:optimizeQuality; fill-rule:evenodd; clip-rule:evenodd"
viewBox="0 0 8268 11693"
 xmlns:xlink="http://www.w3.org/1999/xlink">
 <defs>
  <style type="text/css">
   <![CDATA[
    .str2 {stroke:#E31E24;stroke-width:19.685}
    .str3 {stroke:#2B2A29;stroke-width:39.3701}
    .str1 {stroke:#2B2A29;stroke-width:78.7402}
    .str0 {stroke:#2B2A29;stroke-width:98.4252}
    .fil0 {fill:none}
    .fil1 {fill:#2B2A29}
    .fil2 {fill:#434242}
    .fil6 {fill:#D6E9D8}
    .fil5 {fill:#E31E24}
    .fil4 {fill:#EBECEC}
    .fil3 {fill:#FFED00}
   ]]>
  </style>
 </defs>
 <g id="Слой_x0020_1">
  <metadata id="CorelCorpID_0Corel-Layer"/>
  <polyline class="fil0 str0" points="3520,4353 3677,4511 3831,4353 "/>
  <polygon class="fil1" points="3677,4511 3495,5140 3677,5798 3859,5140 "/>
  <polygon class="fil2 str1" points="4099,4274 5197,4353 5197,5798 2158,5798 2158,4353 3255,4274 3638,5798 3717,5798 "/>
  <polygon class="fil1 str0" points="3677,4511 3520,4353 3831,4353 "/>
  <line class="fil0 str0" x1="4606" y1="4892" x2="4606" y2= "5798" />
  <line class="fil0 str0" x1="2748" y1="4892" x2="2748" y2= "5798" />
  <circle class="fil3 str0" cx="3677" cy="3227" r="1165"/>
  <path class="fil1 str0" d="M4325 2818c0,0 0,0 0,0 0,136 -111,247 -247,247 -136,0 -247,-111 -247,-247l0 -124 494 0 0 124z"/>
  <line class="fil0 str0" x1="3831" y1="2737" x2="3017" y2= "2267" />
  <line class="fil0 str0" x1="4260" y1="2985" x2="4842" y2= "3321" />
  <path class="fil4" d="M3524 2823c0,136 -111,247 -247,247 -136,0 -247,-111 -247,-247l0 -118 494 118z"/>
  <path class="fil0 str2" d="M3030 2795c0,0 46,-9 60,9 14,18 33,27 51,18"/>
  <path class="fil0 str2" d="M3044 2908c63,-12 94,28 116,-15 22,-43 7,28 30,27"/>
  <path class="fil0 str2" d="M3395 3040c-43,-63 -35,-59 -68,-70 -34,-12 -50,-11 -66,-20"/>
  <path class="fil0 str2" d="M3327 2970c0,0 24,3 -15,-17 -39,-21 5,-9 23,-24"/>
  <path class="fil0 str2" d="M3152 3036c0,0 113,-41 51,-64 -63,-23 -34,-31 -9,-31"/>
  <path class="fil0 str2" d="M3493 2941c0,0 -10,-39 -80,-32 -70,7 -67,-5 -70,-12"/>
  <line class="fil0 str0" x1="3002" y1="3645" x2="4357" y2= "3716" />
  <circle class="fil5" cx="3277" cy="2848" r="93"/>
  <g id="_191866768">
   <path class="fil6" d="M2779 3326c300,-36 597,-129 900,-129 303,0 600,93 900,129 -8,114 -25,229 -25,343 0,114 18,229 25,343 -300,30 -599,105 -900,104 -302,0 -600,-75 -900,-105 8,-114 25,-228 25,-343 0,-114 -17,-229 -25,-343z"/>
   <path class="fil0 str3" d="M2779 4031c0,-7 0,-13 0,-20 1,-38 4,-76 8,-114 4,-38 8,-76 11,-114 3,-38 6,-76 6,-114 0,-38 -3,-76 -6,-114 -4,-38 -8,-76 -11,-114 -4,-38 -6,-76 -8,-114 0,-7 0,-13 0,-20"/>
   <path class="fil0 str3" d="M3229 4089c0,-8 0,-15 0,-23 1,-45 2,-90 4,-134 2,-45 4,-90 6,-135 1,-45 3,-90 3,-135 0,-45 -1,-90 -3,-135 -2,-45 -4,-90 -6,-134 -2,-45 -3,-90 -4,-135 0,-8 0,-15 0,-23"/>
   <path class="fil0 str3" d="M3679 4143c0,-9 0,-18 0,-26 0,-51 0,-102 0,-153 0,-51 0,-102 0,-153 0,-51 0,-102 0,-153 0,-51 0,-102 0,-153 0,-51 0,-102 0,-153 0,-51 0,-102 0,-153 0,-9 0,-18 0,-26"/>
   <path class="fil0 str3" d="M4130 4089c0,-8 0,-15 0,-23 -1,-45 -2,-90 -4,-134 -2,-45 -4,-90 -6,-135 -1,-45 -3,-90 -3,-135 0,-45 1,-90 3,-135 2,-45 4,-90 6,-134 2,-45 3,-90 4,-135 0,-8 0,-15 0,-23"/>
   <path class="fil0 str3" d="M4580 4031c0,-7 0,-13 0,-20 -1,-38 -4,-76 -8,-114 -4,-38 -8,-76 -11,-114 -3,-38 -6,-76 -6,-114 0,-38 3,-76 6,-114 4,-38 8,-76 11,-114 4,-38 6,-76 8,-114 0,-7 0,-13 0,-20"/>
   <path class="fil0 str3" d="M2753 4011c8,0 17,0 26,0 150,9 300,30 450,54 150,24 300,43 450,50 150,-7 300,-26 450,-50 150,-25 300,-45 450,-54 9,0 17,0 26,0"/>
   <path class="fil0 str3" d="M2773 3783c8,0 17,0 25,0 147,2 294,8 441,14 147,6 294,11 441,13 147,-2 294,-6 441,-13 147,-6 294,-11 441,-14 8,0 17,0 26,0"/>
   <path class="fil0 str3" d="M2773 3555c8,0 17,0 25,0 147,-5 294,-14 441,-27 147,-12 294,-21 441,-25 147,4 294,13 441,25 147,12 294,22 441,27 8,0 17,0 26,0"/>
   <path class="fil0 str3" d="M2753 3327c8,0 17,0 26,-1 150,-12 300,-36 450,-67 150,-30 300,-53 450,-62 150,9 300,32 450,62 150,31 300,55 450,67 9,0 17,1 26,1"/>
  </g>
  <line class="fil0 str3" x1="2779" y1="3326" x2="2512" y2= "3138" />
  <line class="fil0 str3" x1="4580" y1="3326" x2="4842" y2= "3138" />
  <path class="fil0 str0" d="M3524 2823c0,136 -111,247 -247,247 -136,0 -247,-111 -247,-247l0 -118 494 118z"/>
 </g>
</svg>
