<?xml version="1.0" encoding="UTF-8" standalone="no"?>
<!-- Creator: CorelDRAW X6 -->

<svg
   xmlns:dc="http://purl.org/dc/elements/1.1/"
   xmlns:cc="http://creativecommons.org/ns#"
   xmlns:rdf="http://www.w3.org/1999/02/22-rdf-syntax-ns#"
   xmlns:svg="http://www.w3.org/2000/svg"
   xmlns="http://www.w3.org/2000/svg"
   xmlns:sodipodi="http://sodipodi.sourceforge.net/DTD/sodipodi-0.dtd"
   xmlns:inkscape="http://www.inkscape.org/namespaces/inkscape"
   xml:space="preserve"
   width="215.94679"
   height="215.94679"
   version="1.1"
   style="clip-rule:evenodd;fill-rule:evenodd;image-rendering:optimizeQuality;shape-rendering:geometricPrecision;text-rendering:geometricPrecision"
   viewBox="0 0 2249.5218 2249.4652"
   id="svg18"
   sodipodi:docname="isopod.svg"
   inkscape:version="0.92.2 (5c3e80d, 2017-08-06)"
   inkscape:export-filename=".\isopod.png"
   inkscape:export-xdpi="133.69"
   inkscape:export-ydpi="133.69"><metadata
     id="metadata22"><rdf:RDF><cc:Work
         rdf:about=""><dc:format>image/svg+xml</dc:format><dc:type
           rdf:resource="http://purl.org/dc/dcmitype/StillImage" /><dc:title /></cc:Work></rdf:RDF></metadata><sodipodi:namedview
     pagecolor="#ffffff"
     bordercolor="#666666"
     borderopacity="1"
     objecttolerance="10"
     gridtolerance="10"
     guidetolerance="10"
     inkscape:pageopacity="0"
     inkscape:pageshadow="2"
     inkscape:window-width="1280"
     inkscape:window-height="961"
     id="namedview20"
     showgrid="false"
     fit-margin-top="0"
     fit-margin-left="0"
     fit-margin-right="0"
     fit-margin-bottom="0"
     units="px"
     inkscape:zoom="1.0434241"
     inkscape:cx="-46.505509"
     inkscape:cy="158.68712"
     inkscape:window-x="1272"
     inkscape:window-y="46"
     inkscape:window-maximized="1"
     inkscape:current-layer="svg18" /><defs
     id="defs4"><style
       type="text/css"
       id="style2"><![CDATA[
    .str0 {stroke:#2B2A29;stroke-width:59.0551}
    .str1 {stroke:#2B2A29;stroke-width:78.7402}
    .fil2 {fill:none}
    .fil1 {fill:#FEFEFE}
    .fil0 {fill:#00FE00}
   ]]></style></defs><g
     id="Слой_x0020_1"
     transform="translate(-6082.9585,-5103.5061)"><metadata
       id="CorelCorpID_0Corel-Layer" /><path
       class="fil0 str0"
       d="m 7222,5135 c 371,0 672,397 672,672 0,275 -70,314 -183,422 209,254 101,527 58,809 -5,30 -56,136 -56,139 -34,-18 -59,-170 -87,-211 -3,-4 5,-390 -6,-449 -9,-50 -23,-111 -56,-162 -11,7 -22,13 -34,19 61,113 43,284 43,400 0,69 -97,523 -163,513 0,0 -11,-139 -10,-142 48,-137 12,-524 -78,-693 -5,3 -11,4 -17,2 -39,96 -95,233 -102,255 -27,90 -20,241 -34,310 -12,59 20,191 44,252 -28,-20 -44,-32 -63,-63 -131,-215 -160,-405 -105,-625 3,-11 9,-76 17,-136 -11,-2 -23,-5 -33,-9 -40,56 -62,123 -71,174 -10,60 -3,450 -6,454 -28,41 -54,195 -87,213 0,-3 -51,-108 -56,-138 -10,-68 -25,-135 -37,-202 -13,-67 -24,-132 -27,-198 -4,-65 -1,-129 15,-193 16,-63 44,-126 90,-187 -181,-119 -300,-254 -300,-556 0,-302 301,-672 672,-672 z"
       id="path7"
       inkscape:connector-curvature="0"
       style="fill:#00fe00;stroke:#2b2a29;stroke-width:59.05509949" /><line
       class="fil2 str0"
       x1="6850"
       y1="6367"
       x2="7000"
       y2="6208"
       id="line13"
       style="fill:none;stroke:#2b2a29;stroke-width:59.05509949" /><line
       class="fil2 str0"
       x1="7721"
       y1="6242"
       x2="7609"
       y2="6126"
       id="line15"
       style="fill:none;stroke:#2b2a29;stroke-width:59.05509949" /></g><path
     style="fill:#000000;fill-rule:evenodd;stroke:#000000;stroke-width:52.08509064;stroke-linecap:butt;stroke-linejoin:miter;stroke-miterlimit:4;stroke-dasharray:none;stroke-opacity:1"
     d="M 536.43014,472.13385 1191.3784,764.9952 707.85174,889.7365 Z"
     id="path4499"
     inkscape:connector-curvature="0"
     sodipodi:nodetypes="cccc" /><path
     sodipodi:nodetypes="cccc"
     inkscape:connector-curvature="0"
     id="path4505"
     d="m 1766.5299,472.13385 -654.948,292.86135 483.5262,124.7413 z"
     style="fill:#000000;fill-rule:evenodd;stroke:#000000;stroke-width:52.08509064;stroke-linecap:butt;stroke-linejoin:miter;stroke-miterlimit:4;stroke-dasharray:none;stroke-opacity:1" /></svg>