<?xml version="1.0" encoding="UTF-8"?>
<!DOCTYPE svg PUBLIC "-//W3C//DTD SVG 1.1//EN" "http://www.w3.org/Graphics/SVG/1.1/DTD/svg11.dtd">
<!-- Creator: CorelDRAW X6 -->
<svg xmlns="http://www.w3.org/2000/svg" xml:space="preserve" width="8.26772in" height="11.6929in" version="1.1" style="shape-rendering:geometricPrecision; text-rendering:geometricPrecision; image-rendering:optimizeQuality; fill-rule:evenodd; clip-rule:evenodd"
viewBox="0 0 8268 11693"
 xmlns:xlink="http://www.w3.org/1999/xlink">
 <defs>
  <style type="text/css">
   <![CDATA[
    .str0 {stroke:#2B2A29;stroke-width:59.0551}
    .str1 {stroke:#2B2A29;stroke-width:78.7402}
    .fil2 {fill:none}
    .fil1 {fill:#FEFEFE}
    .fil0 {fill:#00FE00}
   ]]>
  </style>
 </defs>
 <g id="Слой_x0020_1">
  <metadata id="CorelCorpID_0Corel-Layer"/>
  <path class="fil0 str0" d="M7222 5135c371,0 672,397 672,672 0,275 -70,314 -183,422 209,254 101,527 58,809 -5,30 -56,136 -56,139 -34,-18 -59,-170 -87,-211 -3,-4 5,-390 -6,-449 -9,-50 -23,-111 -56,-162 -11,7 -22,13 -34,19 61,113 43,284 43,400 0,69 -97,523 -163,513 0,0 -11,-139 -10,-142 48,-137 12,-524 -78,-693 -5,3 -11,4 -17,2 -39,96 -95,233 -102,255 -27,90 -20,241 -34,310 -12,59 20,191 44,252 -28,-20 -44,-32 -63,-63 -131,-215 -160,-405 -105,-625 3,-11 9,-76 17,-136 -11,-2 -23,-5 -33,-9 -40,56 -62,123 -71,174 -10,60 -3,450 -6,454 -28,41 -54,195 -87,213 0,-3 -51,-108 -56,-138 -10,-68 -25,-135 -37,-202 -13,-67 -24,-132 -27,-198 -4,-65 -1,-129 15,-193 16,-63 44,-126 90,-187 -181,-119 -300,-254 -300,-556 0,-302 301,-672 672,-672z"/>
  <path class="fil1 str1" d="M7003 5552c111,0 201,90 201,201 0,111 -76,87 -194,87 -118,0 -208,24 -208,-87 0,-111 90,-201 201,-201z"/>
  <path class="fil1 str1" d="M7478 5541c-111,0 -201,90 -201,201 0,111 86,80 205,80 119,0 198,31 198,-80 0,-111 -90,-201 -201,-201z"/>
  <line class="fil2 str0" x1="6850" y1="6367" x2="7000" y2= "6208" />
  <line class="fil2 str0" x1="7721" y1="6242" x2="7609" y2= "6126" />
 </g>
</svg>
