<?xml version="1.0" encoding="UTF-8"?>
<!DOCTYPE svg PUBLIC "-//W3C//DTD SVG 1.1//EN" "http://www.w3.org/Graphics/SVG/1.1/DTD/svg11.dtd">
<!-- Creator: CorelDRAW X6 -->
<svg xmlns="http://www.w3.org/2000/svg" xml:space="preserve" width="8.26772in" height="11.6929in" version="1.1" style="shape-rendering:geometricPrecision; text-rendering:geometricPrecision; image-rendering:optimizeQuality; fill-rule:evenodd; clip-rule:evenodd"
viewBox="0 0 8268 11693"
 xmlns:xlink="http://www.w3.org/1999/xlink">
 <defs>
  <style type="text/css">
   <![CDATA[
    .str0 {stroke:#2B2A29;stroke-width:98.4252}
    .fil3 {fill:none}
    .fil2 {fill:#2B2A29}
    .fil0 {fill:#FEFEFE}
    .fil1 {fill:#FFED00}
   ]]>
  </style>
 </defs>
 <g id="Слой_x0020_1">
  <metadata id="CorelCorpID_0Corel-Layer"/>
  <rect class="fil0" x="1762" y="2007" width="3830" height="3830"/>
  <path class="fil1 str0" d="M2382 5178l2458 -895c-27,-97 25,-199 120,-234 100,-37 212,15 248,116 28,76 5,157 -51,209 76,4 146,52 173,127 37,100 -15,212 -116,248 -96,35 -201,-11 -243,-102l-2458 895c27,97 -25,199 -120,234 -100,37 -212,-15 -248,-116 -28,-76 -5,-157 51,-209 -76,-4 -146,-52 -173,-127 -37,-100 15,-212 116,-248 96,-35 201,11 243,102z"/>
  <path class="fil1 str0" d="M2514 4284l2458 895c41,-91 147,-137 243,-102 100,37 152,148 116,248 -28,76 -97,124 -173,127 56,51 78,133 51,209 -37,100 -148,152 -248,116 -96,-35 -147,-137 -120,-234l-2458 -895c-41,91 -147,137 -243,102 -100,-37 -152,-148 -116,-248 28,-76 97,-124 173,-127 -56,-51 -78,-133 -51,-209 37,-100 148,-152 248,-116 96,35 147,137 120,234z"/>
  <path class="fil1 str0" d="M2512 4938l0 -7 0 -1704c0,-643 522,-1165 1165,-1165 643,0 1165,522 1165,1165l0 1704c0,2 0,5 0,7 0,139 -105,252 -235,252 -130,0 -235,-113 -235,-252 0,-2 0,-4 0,-7l-6 -911c-52,25 -100,55 -146,90l5 820c0,2 0,5 0,7 0,139 -105,252 -235,252 -130,0 -235,-113 -235,-252 0,-2 0,-4 0,-7l-2 -698c-27,0 -52,1 -76,1 -26,0 -52,-1 -79,-1l0 698c0,2 0,5 0,7 0,139 -105,252 -235,252 -130,0 -235,-113 -235,-252 0,-3 0,-5 0,-7l5 -820c-46,-35 -94,-65 -146,-90l-6 911c0,2 0,5 0,7 0,139 -105,252 -235,252 -130,0 -235,-113 -235,-252zm0 0l0 -8c0,2 0,5 0,8z"/>
  <path class="fil2 str0" d="M4325 3054c0,0 0,0 0,0 0,136 -111,247 -247,247 -136,0 -247,-111 -247,-247l0 -124 494 0 0 124z"/>
  <line class="fil3 str0" x1="3831" y1="2973" x2="2850" y2= "2407" />
  <line class="fil3 str0" x1="4260" y1="3221" x2="4842" y2= "3557" />
  <path class="fil3 str0" d="M3030 3178c0,-136 111,-247 247,-247 136,0 247,111 247,247"/>
 </g>
</svg>
