<?xml version="1.0" encoding="UTF-8" standalone="no"?>
<!-- Creator: CorelDRAW X6 -->

<svg
   xmlns:dc="http://purl.org/dc/elements/1.1/"
   xmlns:cc="http://creativecommons.org/ns#"
   xmlns:rdf="http://www.w3.org/1999/02/22-rdf-syntax-ns#"
   xmlns:svg="http://www.w3.org/2000/svg"
   xmlns="http://www.w3.org/2000/svg"
   xmlns:sodipodi="http://sodipodi.sourceforge.net/DTD/sodipodi-0.dtd"
   xmlns:inkscape="http://www.inkscape.org/namespaces/inkscape"
   xml:space="preserve"
   width="3.8298705in"
   height="3.8304157in"
   version="1.1"
   style="clip-rule:evenodd;fill-rule:evenodd;image-rendering:optimizeQuality;shape-rendering:geometricPrecision;text-rendering:geometricPrecision"
   viewBox="0 0 3830.0001 3830.4486"
   id="svg2"
   inkscape:version="0.91 r13725"
   sodipodi:docname="tentacles.svg"
   inkscape:export-filename="D:\X-Files\Projects\artwork\tentacles.png"
   inkscape:export-xdpi="133.69"
   inkscape:export-ydpi="133.69"><metadata
     id="metadata28"><rdf:RDF><cc:Work
         rdf:about=""><dc:format>image/svg+xml</dc:format><dc:type
           rdf:resource="http://purl.org/dc/dcmitype/StillImage" /><dc:title></dc:title></cc:Work></rdf:RDF></metadata><sodipodi:namedview
     pagecolor="#ffffff"
     bordercolor="#666666"
     borderopacity="1"
     objecttolerance="10"
     gridtolerance="10"
     guidetolerance="10"
     inkscape:pageopacity="0"
     inkscape:pageshadow="2"
     inkscape:window-width="1280"
     inkscape:window-height="961"
     id="namedview26"
     showgrid="false"
     inkscape:zoom="0.63429642"
     inkscape:cx="-101.30699"
     inkscape:cy="117.65531"
     inkscape:window-x="1272"
     inkscape:window-y="46"
     inkscape:window-maximized="1"
     inkscape:current-layer="svg2"
     fit-margin-top="0"
     fit-margin-left="0"
     fit-margin-right="0"
     fit-margin-bottom="0" /><defs
     id="defs4"><style
       type="text/css"
       id="style6"><![CDATA[
    .str0 {stroke:#2B2A29;stroke-width:98.4252}
    .fil3 {fill:none}
    .fil2 {fill:#2B2A29}
    .fil0 {fill:#FEFEFE}
    .fil1 {fill:#FFED00}
   ]]></style></defs><g
     id="Слой_x0020_1"
     transform="translate(-1762,-2007.1472)"><metadata
       id="CorelCorpID_0Corel-Layer" /><rect
       class="fil0"
       x="1762"
       y="2007"
       width="3830"
       height="3830"
       id="rect10"
       style="fill:none" /><path
       class="fil1 str0"
       d="m 2382,5178 2458,-895 c -27,-97 25,-199 120,-234 100,-37 212,15 248,116 28,76 5,157 -51,209 76,4 146,52 173,127 37,100 -15,212 -116,248 -96,35 -201,-11 -243,-102 l -2458,895 c 27,97 -25,199 -120,234 -100,37 -212,-15 -248,-116 -28,-76 -5,-157 51,-209 -76,-4 -146,-52 -173,-127 -37,-100 15,-212 116,-248 96,-35 201,11 243,102 z"
       id="path12"
       inkscape:connector-curvature="0"
       style="fill:#ffed00;stroke:#2b2a29;stroke-width:98.42520142" /><path
       class="fil1 str0"
       d="m 2514,4284 2458,895 c 41,-91 147,-137 243,-102 100,37 152,148 116,248 -28,76 -97,124 -173,127 56,51 78,133 51,209 -37,100 -148,152 -248,116 -96,-35 -147,-137 -120,-234 L 2383,4648 c -41,91 -147,137 -243,102 -100,-37 -152,-148 -116,-248 28,-76 97,-124 173,-127 -56,-51 -78,-133 -51,-209 37,-100 148,-152 248,-116 96,35 147,137 120,234 z"
       id="path14"
       inkscape:connector-curvature="0"
       style="fill:#ffed00;stroke:#2b2a29;stroke-width:98.42520142" /><path
       class="fil1 str0"
       d="m 2512,4938 0,-7 0,-1704 c 0,-643 522,-1165 1165,-1165 643,0 1165,522 1165,1165 l 0,1704 c 0,2 0,5 0,7 0,139 -105,252 -235,252 -130,0 -235,-113 -235,-252 0,-2 0,-4 0,-7 l -6,-911 c -52,25 -100,55 -146,90 l 5,820 c 0,2 0,5 0,7 0,139 -105,252 -235,252 -130,0 -235,-113 -235,-252 0,-2 0,-4 0,-7 l -2,-698 c -27,0 -52,1 -76,1 -26,0 -52,-1 -79,-1 l 0,698 c 0,2 0,5 0,7 0,139 -105,252 -235,252 -130,0 -235,-113 -235,-252 0,-3 0,-5 0,-7 l 5,-820 c -46,-35 -94,-65 -146,-90 l -6,911 c 0,2 0,5 0,7 0,139 -105,252 -235,252 -130,0 -235,-113 -235,-252 z m 0,0 0,-8 c 0,2 0,5 0,8 z"
       id="path16"
       inkscape:connector-curvature="0"
       style="fill:#ffed00;stroke:#2b2a29;stroke-width:98.42520142" /><path
       class="fil2 str0"
       d="m 4325,3054 c 0,0 0,0 0,0 0,136 -111,247 -247,247 -136,0 -247,-111 -247,-247 l 0,-124 494,0 0,124 z"
       id="path18"
       inkscape:connector-curvature="0"
       style="fill:#2b2a29;stroke:#2b2a29;stroke-width:98.42520142" /><line
       class="fil3 str0"
       x1="3831"
       y1="2973"
       x2="2850"
       y2="2407"
       id="line20"
       style="fill:none;stroke:#2b2a29;stroke-width:98.42520142" /><line
       class="fil3 str0"
       x1="4260"
       y1="3221"
       x2="4842"
       y2="3557"
       id="line22"
       style="fill:none;stroke:#2b2a29;stroke-width:98.42520142" /><path
       class="fil3 str0"
       d="m 3030,3178 c 0,-136 111,-247 247,-247 136,0 247,111 247,247"
       id="path24"
       inkscape:connector-curvature="0"
       style="fill:none;stroke:#2b2a29;stroke-width:98.42520142" /></g></svg>